<svg width="253" height="95" viewBox="0 0 253 95" fill="none" xmlns="http://www.w3.org/2000/svg">
<rect width="253" height="95" rx="10" fill="white"/>
<path d="M57.35 27.975C58.2951 26.8857 59.0157 25.6204 59.4705 24.2518C59.9253 22.8833 60.1052 21.4383 60 20C57.0984 20.2342 54.405 21.5989 52.5 23.8C51.5877 24.8549 50.8964 26.0822 50.467 27.4091C50.0376 28.736 49.8788 30.1356 50 31.525C51.4154 31.5368 52.8145 31.2227 54.089 30.6071C55.3635 29.9916 56.4793 29.0909 57.35 27.975ZM63.65 46.575C63.6668 44.6593 64.1714 42.7795 65.1162 41.113C66.061 39.4465 67.4148 38.0481 69.05 37.05C68.018 35.5631 66.6539 34.3371 65.0656 33.4692C63.4773 32.6013 61.7087 32.1154 59.9 32.05C56 31.65 52.4 34.325 50.325 34.325C48.25 34.325 45.325 32.1 42.075 32.15C39.9503 32.22 37.88 32.8395 36.0661 33.948C34.2522 35.0565 32.7565 36.6162 31.725 38.475C27.325 46.125 30.6 57.5 35 63.675C37 66.7 39.5 70.125 42.8 70C46.1 69.875 47.175 67.95 51 67.95C54.825 67.95 56 70 59.25 69.925C62.5 69.85 64.8 66.825 66.9 63.8C68.3876 61.6038 69.5496 59.204 70.35 56.675C68.3687 55.83 66.6783 54.4232 65.4876 52.6283C64.2969 50.8333 63.6581 48.7289 63.65 46.575Z" fill="#1D3557"/>
<path d="M93.708 38V28.2H97.586C98.622 28.2 99.532 28.41 100.316 28.83C101.1 29.25 101.707 29.8287 102.136 30.566C102.575 31.3033 102.794 32.148 102.794 33.1C102.794 34.052 102.575 34.8967 102.136 35.634C101.707 36.3713 101.1 36.95 100.316 37.37C99.532 37.79 98.622 38 97.586 38H93.708ZM94.422 37.356H97.53C98.454 37.356 99.2567 37.174 99.938 36.81C100.619 36.446 101.147 35.9467 101.52 35.312C101.893 34.668 102.08 33.9307 102.08 33.1C102.08 32.2693 101.893 31.5367 101.52 30.902C101.147 30.258 100.619 29.754 99.938 29.39C99.2567 29.026 98.454 28.844 97.53 28.844H94.422V37.356ZM107.906 38.056C107.206 38.056 106.581 37.8973 106.03 37.58C105.489 37.2627 105.055 36.824 104.728 36.264C104.411 35.704 104.252 35.0647 104.252 34.346C104.252 33.618 104.411 32.9787 104.728 32.428C105.055 31.868 105.489 31.4293 106.03 31.112C106.581 30.7947 107.206 30.636 107.906 30.636C108.606 30.636 109.232 30.7947 109.782 31.112C110.333 31.4293 110.767 31.868 111.084 32.428C111.402 32.9787 111.56 33.618 111.56 34.346C111.56 35.0647 111.402 35.704 111.084 36.264C110.767 36.824 110.333 37.2627 109.782 37.58C109.232 37.8973 108.606 38.056 107.906 38.056ZM107.906 37.426C108.466 37.426 108.97 37.3 109.418 37.048C109.866 36.7867 110.216 36.4227 110.468 35.956C110.72 35.4893 110.846 34.9527 110.846 34.346C110.846 33.73 110.72 33.1933 110.468 32.736C110.216 32.2693 109.866 31.91 109.418 31.658C108.97 31.3967 108.466 31.266 107.906 31.266C107.346 31.266 106.842 31.3967 106.394 31.658C105.956 31.91 105.606 32.2693 105.344 32.736C105.092 33.1933 104.966 33.73 104.966 34.346C104.966 34.9527 105.092 35.4893 105.344 35.956C105.606 36.4227 105.956 36.7867 106.394 37.048C106.842 37.3 107.346 37.426 107.906 37.426ZM114.955 38L112.183 30.692H112.855L115.431 37.608H115.137L117.783 30.692H118.385L121.017 37.608H120.709L123.327 30.692H123.971L121.199 38H120.541L117.965 31.364H118.189L115.599 38H114.955ZM129.169 30.636C129.767 30.636 130.285 30.7527 130.723 30.986C131.171 31.21 131.517 31.5553 131.759 32.022C132.011 32.4793 132.137 33.0487 132.137 33.73V38H131.437V33.786C131.437 32.9647 131.227 32.3393 130.807 31.91C130.397 31.4807 129.818 31.266 129.071 31.266C128.502 31.266 128.007 31.3827 127.587 31.616C127.167 31.8493 126.845 32.176 126.621 32.596C126.407 33.016 126.299 33.52 126.299 34.108V38H125.599V30.692H126.271V32.722L126.173 32.498C126.397 31.9193 126.766 31.4667 127.279 31.14C127.793 30.804 128.423 30.636 129.169 30.636ZM135.019 38V27.612H135.719V38H135.019ZM141.526 38.056C140.826 38.056 140.2 37.8973 139.65 37.58C139.108 37.2627 138.674 36.824 138.348 36.264C138.03 35.704 137.872 35.0647 137.872 34.346C137.872 33.618 138.03 32.9787 138.348 32.428C138.674 31.868 139.108 31.4293 139.65 31.112C140.2 30.7947 140.826 30.636 141.526 30.636C142.226 30.636 142.851 30.7947 143.402 31.112C143.952 31.4293 144.386 31.868 144.704 32.428C145.021 32.9787 145.18 33.618 145.18 34.346C145.18 35.0647 145.021 35.704 144.704 36.264C144.386 36.824 143.952 37.2627 143.402 37.58C142.851 37.8973 142.226 38.056 141.526 38.056ZM141.526 37.426C142.086 37.426 142.59 37.3 143.038 37.048C143.486 36.7867 143.836 36.4227 144.088 35.956C144.34 35.4893 144.466 34.9527 144.466 34.346C144.466 33.73 144.34 33.1933 144.088 32.736C143.836 32.2693 143.486 31.91 143.038 31.658C142.59 31.3967 142.086 31.266 141.526 31.266C140.966 31.266 140.462 31.3967 140.014 31.658C139.575 31.91 139.225 32.2693 138.964 32.736C138.712 33.1933 138.586 33.73 138.586 34.346C138.586 34.9527 138.712 35.4893 138.964 35.956C139.225 36.4227 139.575 36.7867 140.014 37.048C140.462 37.3 140.966 37.426 141.526 37.426ZM151.93 38V36.334L151.902 36.082V33.338C151.902 32.6567 151.715 32.1387 151.342 31.784C150.978 31.4293 150.441 31.252 149.732 31.252C149.228 31.252 148.757 31.3407 148.318 31.518C147.889 31.686 147.52 31.9053 147.212 32.176L146.862 31.672C147.226 31.3453 147.665 31.0933 148.178 30.916C148.691 30.7293 149.228 30.636 149.788 30.636C150.693 30.636 151.389 30.8647 151.874 31.322C152.359 31.7793 152.602 32.4607 152.602 33.366V38H151.93ZM149.298 38.056C148.757 38.056 148.285 37.972 147.884 37.804C147.492 37.6267 147.189 37.3793 146.974 37.062C146.769 36.7447 146.666 36.3807 146.666 35.97C146.666 35.5967 146.75 35.2607 146.918 34.962C147.095 34.654 147.385 34.4067 147.786 34.22C148.187 34.024 148.724 33.926 149.396 33.926H152.084V34.472H149.41C148.654 34.472 148.122 34.612 147.814 34.892C147.515 35.172 147.366 35.522 147.366 35.942C147.366 36.4087 147.543 36.782 147.898 37.062C148.253 37.342 148.752 37.482 149.396 37.482C150.012 37.482 150.53 37.342 150.95 37.062C151.379 36.782 151.697 36.376 151.902 35.844L152.098 36.32C151.902 36.852 151.566 37.2767 151.09 37.594C150.623 37.902 150.026 38.056 149.298 38.056ZM158.3 38.056C157.619 38.056 157.003 37.902 156.452 37.594C155.911 37.2767 155.481 36.838 155.164 36.278C154.847 35.718 154.688 35.074 154.688 34.346C154.688 33.6087 154.847 32.9647 155.164 32.414C155.481 31.854 155.911 31.42 156.452 31.112C157.003 30.7947 157.619 30.636 158.3 30.636C158.944 30.636 159.523 30.7853 160.036 31.084C160.559 31.3827 160.969 31.8073 161.268 32.358C161.576 32.9087 161.73 33.5713 161.73 34.346C161.73 35.102 161.581 35.76 161.282 36.32C160.983 36.88 160.573 37.3093 160.05 37.608C159.537 37.9067 158.953 38.056 158.3 38.056ZM158.342 37.426C158.902 37.426 159.401 37.3 159.84 37.048C160.288 36.7867 160.638 36.4227 160.89 35.956C161.151 35.4893 161.282 34.9527 161.282 34.346C161.282 33.73 161.151 33.1933 160.89 32.736C160.638 32.2693 160.288 31.91 159.84 31.658C159.401 31.3967 158.902 31.266 158.342 31.266C157.782 31.266 157.278 31.3967 156.83 31.658C156.391 31.91 156.041 32.2693 155.78 32.736C155.528 33.1933 155.402 33.73 155.402 34.346C155.402 34.9527 155.528 35.4893 155.78 35.956C156.041 36.4227 156.391 36.7867 156.83 37.048C157.278 37.3 157.782 37.426 158.342 37.426ZM161.296 38V35.606L161.422 34.332L161.282 33.058V27.612H161.982V38H161.296ZM171.385 38.056C170.685 38.056 170.06 37.8973 169.509 37.58C168.968 37.2627 168.534 36.824 168.207 36.264C167.89 35.704 167.731 35.0647 167.731 34.346C167.731 33.618 167.89 32.9787 168.207 32.428C168.534 31.868 168.968 31.4293 169.509 31.112C170.06 30.7947 170.685 30.636 171.385 30.636C172.085 30.636 172.71 30.7947 173.261 31.112C173.812 31.4293 174.246 31.868 174.563 32.428C174.88 32.9787 175.039 33.618 175.039 34.346C175.039 35.0647 174.88 35.704 174.563 36.264C174.246 36.824 173.812 37.2627 173.261 37.58C172.71 37.8973 172.085 38.056 171.385 38.056ZM171.385 37.426C171.945 37.426 172.449 37.3 172.897 37.048C173.345 36.7867 173.695 36.4227 173.947 35.956C174.199 35.4893 174.325 34.9527 174.325 34.346C174.325 33.73 174.199 33.1933 173.947 32.736C173.695 32.2693 173.345 31.91 172.897 31.658C172.449 31.3967 171.945 31.266 171.385 31.266C170.825 31.266 170.321 31.3967 169.873 31.658C169.434 31.91 169.084 32.2693 168.823 32.736C168.571 33.1933 168.445 33.73 168.445 34.346C168.445 34.9527 168.571 35.4893 168.823 35.956C169.084 36.4227 169.434 36.7867 169.873 37.048C170.321 37.3 170.825 37.426 171.385 37.426ZM180.781 30.636C181.378 30.636 181.896 30.7527 182.335 30.986C182.783 31.21 183.128 31.5553 183.371 32.022C183.623 32.4793 183.749 33.0487 183.749 33.73V38H183.049V33.786C183.049 32.9647 182.839 32.3393 182.419 31.91C182.008 31.4807 181.429 31.266 180.683 31.266C180.113 31.266 179.619 31.3827 179.199 31.616C178.779 31.8493 178.457 32.176 178.233 32.596C178.018 33.016 177.911 33.52 177.911 34.108V38H177.211V30.692H177.883V32.722L177.785 32.498C178.009 31.9193 178.377 31.4667 178.891 31.14C179.404 30.804 180.034 30.636 180.781 30.636ZM192.354 38.056C191.71 38.056 191.216 37.8787 190.87 37.524C190.534 37.1693 190.366 36.684 190.366 36.068V29.096H191.066V35.998C191.066 36.4647 191.183 36.824 191.416 37.076C191.65 37.328 191.986 37.454 192.424 37.454C192.882 37.454 193.26 37.3187 193.558 37.048L193.852 37.538C193.666 37.7153 193.437 37.846 193.166 37.93C192.905 38.014 192.634 38.056 192.354 38.056ZM189.022 31.294V30.692H193.39V31.294H189.022ZM199.374 30.636C199.972 30.636 200.49 30.7527 200.928 30.986C201.376 31.21 201.722 31.5553 201.964 32.022C202.216 32.4793 202.342 33.0487 202.342 33.73V38H201.642V33.786C201.642 32.9647 201.432 32.3393 201.012 31.91C200.602 31.4807 200.023 31.266 199.276 31.266C198.707 31.266 198.212 31.3827 197.792 31.616C197.372 31.8493 197.05 32.176 196.826 32.596C196.612 33.016 196.504 33.52 196.504 34.108V38H195.804V27.612H196.504V32.722L196.378 32.498C196.602 31.9193 196.971 31.4667 197.484 31.14C197.998 30.804 198.628 30.636 199.374 30.636ZM208.192 38.056C207.455 38.056 206.802 37.8973 206.232 37.58C205.672 37.2627 205.229 36.824 204.902 36.264C204.585 35.704 204.426 35.0647 204.426 34.346C204.426 33.618 204.576 32.9787 204.874 32.428C205.182 31.868 205.602 31.4293 206.134 31.112C206.666 30.7947 207.264 30.636 207.926 30.636C208.589 30.636 209.182 30.79 209.704 31.098C210.236 31.406 210.652 31.84 210.95 32.4C211.258 32.9507 211.412 33.59 211.412 34.318C211.412 34.346 211.408 34.3787 211.398 34.416C211.398 34.444 211.398 34.4767 211.398 34.514H204.944V33.968H211.02L210.74 34.234C210.75 33.6647 210.628 33.156 210.376 32.708C210.134 32.2507 209.802 31.896 209.382 31.644C208.962 31.3827 208.477 31.252 207.926 31.252C207.385 31.252 206.9 31.3827 206.47 31.644C206.05 31.896 205.719 32.2507 205.476 32.708C205.234 33.156 205.112 33.6693 205.112 34.248V34.374C205.112 34.9713 205.243 35.5033 205.504 35.97C205.775 36.4273 206.144 36.7867 206.61 37.048C207.077 37.3 207.609 37.426 208.206 37.426C208.673 37.426 209.107 37.342 209.508 37.174C209.919 37.006 210.264 36.7493 210.544 36.404L210.95 36.866C210.633 37.258 210.232 37.5567 209.746 37.762C209.27 37.958 208.752 38.056 208.192 38.056Z" fill="#444444"/>
<path d="M105.056 58.208L106.664 62H109.688L102.344 45.2H99.44L92.024 62H94.976L96.584 58.208H105.056ZM103.976 55.688H97.64L100.808 48.224L103.976 55.688ZM119.103 49.136C117.111 49.136 115.575 49.952 114.639 51.44V49.232H111.879V66.656H114.639V59.792C115.575 61.28 117.111 62.096 119.151 62.096C122.799 62.096 125.199 59.48 125.199 55.664C125.199 51.776 122.727 49.136 119.103 49.136ZM118.527 59.744C116.247 59.744 114.639 58.04 114.639 55.568C114.639 53.168 116.247 51.44 118.527 51.44C120.807 51.44 122.415 53.192 122.415 55.568C122.415 58.016 120.807 59.744 118.527 59.744ZM135.415 49.136C133.423 49.136 131.887 49.952 130.951 51.44V49.232H128.191V66.656H130.951V59.792C131.887 61.28 133.423 62.096 135.463 62.096C139.111 62.096 141.511 59.48 141.511 55.664C141.511 51.776 139.039 49.136 135.415 49.136ZM134.839 59.744C132.559 59.744 130.951 58.04 130.951 55.568C130.951 53.168 132.559 51.44 134.839 51.44C137.119 51.44 138.727 53.192 138.727 55.568C138.727 58.016 137.119 59.744 134.839 59.744ZM147.264 62V44.192H144.504V62H147.264ZM156.718 49.136C152.926 49.16 150.262 51.776 150.262 55.64C150.262 59.48 152.854 62.096 156.79 62.096C158.998 62.096 160.822 61.304 162.07 59.936L160.606 58.376C159.67 59.336 158.398 59.864 157.006 59.864C154.99 59.864 153.478 58.64 153.046 56.672H162.694C163.03 52.064 161.206 49.136 156.718 49.136ZM152.998 54.656C153.31 52.616 154.726 51.344 156.742 51.344C158.83 51.344 160.198 52.592 160.294 54.656H152.998ZM177.447 45.08C173.799 45.08 171.327 46.88 171.327 49.76C171.327 55.736 180.399 53.648 180.399 57.392C180.399 58.688 179.223 59.432 177.255 59.432C175.455 59.432 173.295 58.568 171.567 56.984L170.343 59.432C172.071 61.016 174.567 62.096 177.207 62.096C180.903 62.096 183.543 60.248 183.543 57.248C183.567 51.2 174.495 53.168 174.495 49.496C174.495 48.368 175.575 47.744 177.231 47.744C178.503 47.744 180.327 48.2 182.151 49.304L183.327 46.808C181.767 45.776 179.631 45.08 177.447 45.08ZM193.216 59.072C192.472 59.432 191.872 59.624 191.296 59.624C190.432 59.624 189.928 59.216 189.928 57.896V51.776H193.696V49.712H189.928V46.208H187.192V49.712H185.392V51.776H187.192V58.4C187.192 61.016 188.848 62.12 190.768 62.12C191.848 62.12 192.904 61.784 193.912 61.184L193.216 59.072ZM201.793 49.136C197.833 49.136 195.121 51.752 195.121 55.616C195.121 59.456 197.833 62.096 201.793 62.096C205.729 62.096 208.441 59.456 208.441 55.616C208.441 51.752 205.729 49.136 201.793 49.136ZM201.793 51.512C204.073 51.512 205.681 53.192 205.681 55.64C205.681 58.112 204.073 59.792 201.793 59.792C199.489 59.792 197.881 58.112 197.881 55.64C197.881 53.192 199.489 51.512 201.793 51.512ZM214.081 49.232H211.321V62H214.081V55.328C214.297 53.144 215.929 51.632 218.497 51.776V49.136C216.481 49.136 214.945 50.048 214.081 51.776V49.232ZM226.023 49.136C222.231 49.16 219.567 51.776 219.567 55.64C219.567 59.48 222.159 62.096 226.095 62.096C228.303 62.096 230.127 61.304 231.375 59.936L229.911 58.376C228.975 59.336 227.703 59.864 226.311 59.864C224.295 59.864 222.783 58.64 222.351 56.672H231.999C232.335 52.064 230.511 49.136 226.023 49.136ZM222.303 54.656C222.615 52.616 224.031 51.344 226.047 51.344C228.135 51.344 229.503 52.592 229.599 54.656H222.303Z" fill="#1D3557"/>
</svg>
