<svg width="16" height="12" viewBox="0 0 16 12" fill="none" xmlns="http://www.w3.org/2000/svg">
<path d="M15.7124 5.28921L11.7124 1.28921C11.6192 1.19597 11.5085 1.12201 11.3867 1.07155C11.2649 1.02109 11.1343 0.995117 11.0024 0.995117C10.8706 0.995117 10.74 1.02109 10.6182 1.07155C10.4964 1.12201 10.3857 1.19597 10.2924 1.28921C10.1992 1.38245 10.1252 1.49314 10.0748 1.61496C10.0243 1.73678 9.99835 1.86735 9.99835 1.99921C9.99835 2.13107 10.0243 2.26164 10.0748 2.38346C10.1252 2.50528 10.1992 2.61597 10.2924 2.70921L12.5924 4.99921H1.00244C0.737225 4.99921 0.482871 5.10457 0.295335 5.2921C0.107798 5.47964 0.00244141 5.73399 0.00244141 5.99921C0.00244141 6.26443 0.107798 6.51878 0.295335 6.70632C0.482871 6.89385 0.737225 6.99921 1.00244 6.99921H12.5924L10.2924 9.28921C10.1987 9.38217 10.1243 9.49277 10.0736 9.61463C10.0228 9.73649 9.99664 9.8672 9.99664 9.99921C9.99664 10.1312 10.0228 10.2619 10.0736 10.3838C10.1243 10.5056 10.1987 10.6162 10.2924 10.7092C10.3854 10.8029 10.496 10.8773 10.6179 10.9281C10.7397 10.9789 10.8704 11.005 11.0024 11.005C11.1345 11.005 11.2652 10.9789 11.387 10.9281C11.5089 10.8773 11.6195 10.8029 11.7124 10.7092L15.7124 6.70921C15.8035 6.61411 15.8748 6.50196 15.9224 6.37921C16.0225 6.13575 16.0225 5.86267 15.9224 5.61921C15.8748 5.49646 15.8035 5.38431 15.7124 5.28921Z" fill="#00c52a"/>
</svg>
