<svg width="30" height="25" viewBox="0 0 30 25" fill="none" xmlns="http://www.w3.org/2000/svg">
<path fill-rule="evenodd" clip-rule="evenodd" d="M0.862623 8.05555C0.862623 7.52957 1.30421 7.10317 1.84892 7.10317H16.9722C17.5169 7.10317 17.9585 7.52957 17.9585 8.05555C17.9585 8.58154 17.5169 9.00794 16.9722 9.00794H1.84892C1.30421 9.00794 0.862623 8.58154 0.862623 8.05555Z" fill="#34A853"/>
<path fill-rule="evenodd" clip-rule="evenodd" d="M6.1229 18.2143C6.1229 17.6883 6.56448 17.2619 7.1092 17.2619H9.73933C10.2841 17.2619 10.7256 17.6883 10.7256 18.2143C10.7256 18.7403 10.2841 19.1667 9.73933 19.1667H7.1092C6.56448 19.1667 6.1229 18.7403 6.1229 18.2143Z" fill="#34A853"/>
<path fill-rule="evenodd" clip-rule="evenodd" d="M12.0407 18.2143C12.0407 17.6883 12.4823 17.2619 13.027 17.2619H18.2873C18.832 17.2619 19.2736 17.6883 19.2736 18.2143C19.2736 18.7403 18.832 19.1667 18.2873 19.1667H13.027C12.4823 19.1667 12.0407 18.7403 12.0407 18.2143Z" fill="#34A853"/>
<path fill-rule="evenodd" clip-rule="evenodd" d="M3.71115 3.49946C3.15217 4.03314 2.83523 5.04752 2.83523 7.28095V17.719C2.83523 19.9525 3.15217 20.9669 3.71115 21.5005C4.27402 22.0379 5.3457 22.3413 7.68783 22.3413H22.3114C24.6535 22.3413 25.7252 22.0379 26.2881 21.5005C26.8471 20.9669 27.164 19.9525 27.164 17.719V12.5381C27.164 12.0121 27.6056 11.5857 28.1503 11.5857C28.695 11.5857 29.1366 12.0121 29.1366 12.5381V17.719C29.1366 19.9428 28.8683 21.7157 27.675 22.855C26.4855 23.9906 24.6378 24.246 22.3114 24.246H7.68783C5.36147 24.246 3.51369 23.9906 2.32423 22.855C1.13089 21.7157 0.862623 19.9428 0.862623 17.719V7.28095C0.862623 5.05724 1.13089 3.28432 2.32423 2.14499C3.51369 1.00937 5.36147 0.753968 7.68783 0.753968H16.9722C17.5169 0.753968 17.9585 1.18036 17.9585 1.70635C17.9585 2.23233 17.5169 2.65873 16.9722 2.65873H7.68783C5.3457 2.65873 4.27402 2.96206 3.71115 3.49946Z" fill="#34A853"/>
<path fill-rule="evenodd" clip-rule="evenodd" d="M19.9311 5.19841C19.9311 4.67243 20.3727 4.24603 20.9174 4.24603H28.1503C28.695 4.24603 29.1366 4.67243 29.1366 5.19841C29.1366 5.7244 28.695 6.15079 28.1503 6.15079H20.9174C20.3727 6.15079 19.9311 5.7244 19.9311 5.19841Z" fill="#34A853"/>
<path fill-rule="evenodd" clip-rule="evenodd" d="M24.5339 0.753968C25.0786 0.753968 25.5202 1.18036 25.5202 1.70635V8.69048C25.5202 9.21646 25.0786 9.64286 24.5339 9.64286C23.9891 9.64286 23.5476 9.21646 23.5476 8.69048V1.70635C23.5476 1.18036 23.9891 0.753968 24.5339 0.753968Z" fill="#34A853"/>
<path fill-rule="evenodd" clip-rule="evenodd" d="M2.13931 1.96439C3.4122 0.749112 5.36321 0.5 7.68783 0.5H16.9722C17.6622 0.5 18.2215 1.0401 18.2215 1.70635C18.2215 2.3726 17.6622 2.9127 16.9722 2.9127H7.68783C5.34309 2.9127 4.37524 3.22257 3.89608 3.68005C3.45359 4.10251 3.14228 4.92551 3.10255 6.84921H16.9722C17.6622 6.84921 18.2215 7.38931 18.2215 8.05555C18.2215 8.7218 17.6622 9.2619 16.9722 9.2619H3.09824V17.719C3.09824 19.9542 3.42182 20.8672 3.89608 21.3199C4.37524 21.7774 5.34309 22.0873 7.68783 22.0873H22.3114C24.6561 22.0873 25.624 21.7774 26.1031 21.3199C26.5774 20.8672 26.901 19.9542 26.901 17.719V12.5381C26.901 11.8718 27.4603 11.3317 28.1503 11.3317C28.8403 11.3317 29.3996 11.8718 29.3996 12.5381V17.719C29.3996 19.9418 29.1377 21.8156 27.8599 23.0356C26.587 24.2509 24.636 24.5 22.3114 24.5H7.68783C5.36321 24.5 3.4122 24.2509 2.13931 23.0356C0.861486 21.8156 0.599609 19.9418 0.599609 17.719V7.28095C0.599609 5.05822 0.861485 3.18437 2.13931 1.96439ZM1.12564 9.03929V17.719C1.12564 19.9437 1.40029 21.6157 2.50915 22.6744C3.61518 23.7304 5.35972 23.9921 7.68783 23.9921H22.3114C24.6395 23.9921 26.384 23.7304 27.4901 22.6744C28.5989 21.6157 28.8736 19.9437 28.8736 17.719V12.5381C28.8736 12.1524 28.5498 11.8397 28.1503 11.8397C27.7508 11.8397 27.427 12.1524 27.427 12.5381V17.719C27.427 19.9507 27.1167 21.0666 26.473 21.6811C25.8264 22.2984 24.6509 22.5952 22.3114 22.5952H7.68783C5.34831 22.5952 4.1728 22.2984 3.52623 21.6811C2.88252 21.0666 2.57221 19.9507 2.57221 17.719V9.2619H1.84892C1.57937 9.2619 1.32975 9.17947 1.12564 9.03929ZM2.57221 8.75397H1.84892C1.44946 8.75397 1.12564 8.44128 1.12564 8.05555C1.12564 7.66983 1.44946 7.35714 1.84892 7.35714H2.57221V8.75397ZM3.09824 8.75397H16.9722C17.3717 8.75397 17.6955 8.44128 17.6955 8.05555C17.6955 7.66983 17.3717 7.35714 16.9722 7.35714H3.09824V8.75397ZM2.57636 6.84921H1.84892C1.57974 6.84921 1.33044 6.93142 1.12648 7.07125C1.14387 4.95096 1.43541 3.35073 2.50915 2.32558C3.61518 1.26962 5.35972 1.00794 7.68783 1.00794H16.9722C17.3717 1.00794 17.6955 1.32063 17.6955 1.70635C17.6955 2.09207 17.3717 2.40476 16.9722 2.40476H7.68783C5.34831 2.40476 4.1728 2.70155 3.52623 3.31886C2.92544 3.89246 2.61508 4.90268 2.57636 6.84921ZM23.2845 1.70635C23.2845 1.0401 23.8439 0.5 24.5339 0.5C25.2238 0.5 25.7832 1.0401 25.7832 1.70635V3.99206H28.1503C28.8403 3.99206 29.3996 4.53216 29.3996 5.19841C29.3996 5.86466 28.8403 6.40476 28.1503 6.40476H25.7832V8.69048C25.7832 9.35672 25.2238 9.89682 24.5339 9.89682C23.8439 9.89682 23.2845 9.35672 23.2845 8.69048V6.40476H20.9174C20.2274 6.40476 19.6681 5.86466 19.6681 5.19841C19.6681 4.53216 20.2274 3.99206 20.9174 3.99206H23.2845V1.70635ZM23.2845 4.5H20.9174C20.518 4.5 20.1941 4.81269 20.1941 5.19841C20.1941 5.58414 20.518 5.89682 20.9174 5.89682H23.2845V4.5ZM23.8106 5.89682V4.5H25.2571V5.89682H23.8106ZM23.8106 6.40476V8.69048C23.8106 9.0762 24.1344 9.38889 24.5339 9.38889C24.9333 9.38889 25.2571 9.0762 25.2571 8.69048V6.40476H23.8106ZM25.7832 5.89682H28.1503C28.5498 5.89682 28.8736 5.58414 28.8736 5.19841C28.8736 4.81269 28.5498 4.5 28.1503 4.5H25.7832V5.89682ZM25.2571 3.99206H23.8106V1.70635C23.8106 1.32063 24.1344 1.00794 24.5339 1.00794C24.9333 1.00794 25.2571 1.32063 25.2571 1.70635V3.99206ZM5.85988 18.2143C5.85988 17.548 6.41922 17.0079 7.1092 17.0079H9.73933C10.4293 17.0079 10.9886 17.548 10.9886 18.2143C10.9886 18.8805 10.4293 19.4206 9.73933 19.4206H7.1092C6.41922 19.4206 5.85988 18.8805 5.85988 18.2143ZM7.1092 17.5159C6.70974 17.5159 6.38591 17.8286 6.38591 18.2143C6.38591 18.6 6.70974 18.9127 7.1092 18.9127H9.73933C10.1388 18.9127 10.4626 18.6 10.4626 18.2143C10.4626 17.8286 10.1388 17.5159 9.73933 17.5159H7.1092ZM11.7777 18.2143C11.7777 17.548 12.337 17.0079 13.027 17.0079H18.2873C18.9773 17.0079 19.5366 17.548 19.5366 18.2143C19.5366 18.8805 18.9773 19.4206 18.2873 19.4206H13.027C12.337 19.4206 11.7777 18.8805 11.7777 18.2143ZM13.027 17.5159C12.6275 17.5159 12.3037 17.8286 12.3037 18.2143C12.3037 18.6 12.6275 18.9127 13.027 18.9127H18.2873C18.6867 18.9127 19.0106 18.6 19.0106 18.2143C19.0106 17.8286 18.6867 17.5159 18.2873 17.5159H13.027Z" fill="#34A853"/>
</svg>
