<svg width="22" height="25" viewBox="0 0 22 25" fill="none" xmlns="http://www.w3.org/2000/svg">
<path fill-rule="evenodd" clip-rule="evenodd" d="M3.11608 3.60717C2.42061 4.36335 2.04466 5.50265 2.04466 7.02049V17.9794C2.04466 19.4972 2.42061 20.6365 3.11608 21.3927C3.8014 22.1379 4.91339 22.6369 6.65772 22.6369H15.3411C17.0855 22.6369 18.1975 22.1379 18.8828 21.3927C19.5782 20.6365 19.9542 19.4972 19.9542 17.9794V7.02049C19.9542 5.50265 19.5782 4.36335 18.8828 3.60717C18.1975 2.86201 17.0855 2.36296 15.3411 2.36296H6.65772C4.91339 2.36296 3.8014 2.86201 3.11608 3.60717ZM1.92299 2.48862C3.00148 1.31596 4.60306 0.719125 6.65772 0.719125H15.3411C17.3958 0.719125 18.9974 1.31596 20.0759 2.48862C21.1442 3.65024 21.5823 5.25066 21.5823 7.02049V17.9794C21.5823 19.7492 21.1442 21.3496 20.0759 22.5113C18.9974 23.6839 17.3958 24.2808 15.3411 24.2808H6.65772C4.60306 24.2808 3.00148 23.6839 1.92299 22.5113C0.854631 21.3496 0.416516 19.7492 0.416516 17.9794V7.02049C0.416516 5.25066 0.854631 3.65024 1.92299 2.48862Z" fill="#34A853"/>
<path fill-rule="evenodd" clip-rule="evenodd" d="M13.713 3.45885C14.1626 3.45885 14.5271 3.82684 14.5271 4.28077V6.47255C14.5271 7.2241 15.1395 7.84241 15.8839 7.84241H18.0547C18.5043 7.84241 18.8688 8.2104 18.8688 8.66433C18.8688 9.11826 18.5043 9.48625 18.0547 9.48625H15.8839C14.2403 9.48625 12.8989 8.13196 12.8989 6.47255V4.28077C12.8989 3.82684 13.2634 3.45885 13.713 3.45885Z" fill="#34A853"/>
<path fill-rule="evenodd" clip-rule="evenodd" d="M5.84365 13.5958C5.84365 13.1419 6.20812 12.7739 6.65772 12.7739H10.9994C11.449 12.7739 11.8135 13.1419 11.8135 13.5958C11.8135 14.0498 11.449 14.4178 10.9994 14.4178H6.65772C6.20812 14.4178 5.84365 14.0498 5.84365 13.5958Z" fill="#34A853"/>
<path fill-rule="evenodd" clip-rule="evenodd" d="M5.84365 17.9794C5.84365 17.5255 6.20812 17.1575 6.65772 17.1575H15.3411C15.7907 17.1575 16.1552 17.5255 16.1552 17.9794C16.1552 18.4333 15.7907 18.8013 15.3411 18.8013H6.65772C6.20812 18.8013 5.84365 18.4333 5.84365 17.9794Z" fill="#34A853"/>
<path fill-rule="evenodd" clip-rule="evenodd" d="M1.76369 2.33953C2.89469 1.10979 4.56162 0.5 6.65751 0.5H15.3409C17.4368 0.5 19.1037 1.10979 20.2347 2.33953C21.3529 3.55528 21.7992 5.21723 21.7992 7.02055V17.9795C21.7992 19.7828 21.3529 21.4447 20.2347 22.6605C19.1037 23.8902 17.4368 24.5 15.3409 24.5H6.65751C4.56162 24.5 2.89469 23.8902 1.76369 22.6605C0.645566 21.4447 0.199219 19.7828 0.199219 17.9795V7.02055C0.199219 5.21723 0.645566 3.55528 1.76369 2.33953ZM6.65751 0.938356C4.64408 0.938356 3.10785 1.52224 2.08185 2.63781C1.06327 3.74532 0.63339 5.2842 0.63339 7.02055V17.9795C0.63339 19.7158 1.06327 21.2547 2.08185 22.3622C3.10785 23.4778 4.64408 24.0616 6.65751 24.0616H15.3409C17.3544 24.0616 18.8906 23.4778 19.9166 22.3622C20.9352 21.2547 21.365 19.7158 21.365 17.9795V7.02055C21.365 5.2842 20.9352 3.74532 19.9166 2.63781C18.8906 1.52224 17.3544 0.938356 15.3409 0.938356H6.65751ZM6.65751 2.58219C4.95475 2.58219 3.90795 3.06809 3.27494 3.75636C2.62912 4.45856 2.26153 5.53646 2.26153 7.02055V17.9795C2.26153 19.4635 2.62912 20.5414 3.27494 21.2436C3.90795 21.9319 4.95475 22.4178 6.65751 22.4178H15.3409C17.0437 22.4178 18.0905 21.9319 18.7235 21.2436C19.3693 20.5414 19.7369 19.4635 19.7369 17.9795V7.02055C19.7369 5.53646 19.3693 4.45856 18.7235 3.75636C18.0905 3.06809 17.0437 2.58219 15.3409 2.58219H6.65751ZM2.95679 3.45808C3.69442 2.65604 4.87159 2.14384 6.65751 2.14384H15.3409C17.1268 2.14384 18.304 2.65604 19.0416 3.45808C19.7868 4.26824 20.1711 5.46895 20.1711 7.02055V17.9795C20.1711 19.531 19.7868 20.7318 19.0416 21.5419C18.304 22.344 17.1268 22.8562 15.3409 22.8562H6.65751C4.87159 22.8562 3.69442 22.344 2.95679 21.5419C2.21168 20.7318 1.82736 19.531 1.82736 17.9795V7.02055C1.82736 5.46895 2.21168 4.26824 2.95679 3.45808ZM12.6816 4.28082C12.6816 3.70584 13.1433 3.23973 13.7128 3.23973C14.2823 3.23973 14.7439 3.70584 14.7439 4.28082V6.4726C14.7439 7.1031 15.2592 7.62329 15.8836 7.62329H18.0545C18.624 7.62329 19.0856 8.0894 19.0856 8.66438C19.0856 9.23936 18.624 9.70548 18.0545 9.70548H15.8836C14.1202 9.70548 12.6816 8.25306 12.6816 6.4726V4.28082ZM13.7128 3.67808C13.3831 3.67808 13.1158 3.94794 13.1158 4.28082V6.4726C13.1158 8.01096 14.36 9.26712 15.8836 9.26712H18.0545C18.3842 9.26712 18.6515 8.99727 18.6515 8.66438C18.6515 8.3315 18.3842 8.06164 18.0545 8.06164H15.8836C15.0194 8.06164 14.3098 7.3452 14.3098 6.4726V4.28082C14.3098 3.94794 14.0425 3.67808 13.7128 3.67808ZM5.62635 13.5959C5.62635 13.0209 6.08802 12.5548 6.65751 12.5548H10.9992C11.5687 12.5548 12.0304 13.0209 12.0304 13.5959C12.0304 14.1709 11.5687 14.637 10.9992 14.637H6.65751C6.08802 14.637 5.62635 14.1709 5.62635 13.5959ZM6.65751 12.9931C6.3278 12.9931 6.06052 13.263 6.06052 13.5959C6.06052 13.9288 6.3278 14.1986 6.65751 14.1986H10.9992C11.3289 14.1986 11.5962 13.9288 11.5962 13.5959C11.5962 13.263 11.3289 12.9931 10.9992 12.9931H6.65751ZM5.62635 17.9795C5.62635 17.4045 6.08802 16.9384 6.65751 16.9384H15.3409C15.9104 16.9384 16.3721 17.4045 16.3721 17.9795C16.3721 18.5544 15.9104 19.0205 15.3409 19.0205H6.65751C6.08802 19.0205 5.62635 18.5544 5.62635 17.9795ZM6.65751 17.3767C6.3278 17.3767 6.06052 17.6466 6.06052 17.9795C6.06052 18.3123 6.3278 18.5822 6.65751 18.5822H15.3409C15.6706 18.5822 15.9379 18.3123 15.9379 17.9795C15.9379 17.6466 15.6706 17.3767 15.3409 17.3767H6.65751Z" fill="#34A853"/>
</svg>
