<svg width="253" height="95" viewBox="0 0 253 95" fill="none" xmlns="http://www.w3.org/2000/svg">
<rect width="253" height="95" rx="10" fill="white"/>
<path d="M52.467 45.0046L29.3669 67.2484C28.2852 66.5091 27.6429 65.2795 27.6543 63.9693V26.0398C27.6429 24.7297 28.2852 23.5 29.3669 22.7607L52.467 45.0046Z" fill="#2196F3"/>
<path d="M60.55 37.2344L52.4671 45.0041L29.3669 22.7602C29.454 22.6928 29.5446 22.63 29.6384 22.5722C30.8593 21.8323 32.3843 21.8084 33.6277 22.5096L60.55 37.2344Z" fill="#4CAF50"/>
<path d="M70.3457 45.0041C70.3608 46.4831 69.5571 47.8493 68.2571 48.5548L60.5501 52.7737L52.4671 45.0041L60.5501 37.2344L68.2571 41.4534C69.5571 42.1589 70.3608 43.525 70.3457 45.0041Z" fill="#FFC107"/>
<path d="M60.55 52.7736L33.6277 67.4984C32.3815 68.1887 30.8623 68.1648 29.6384 67.4357C29.5446 67.3779 29.454 67.3152 29.3669 67.2477L52.4671 45.0039L60.55 52.7736Z" fill="#F44336"/>
<path d="M89.894 38.07C89.1567 38.07 88.4753 37.9487 87.85 37.706C87.2247 37.454 86.6787 37.104 86.212 36.656C85.7547 36.208 85.4 35.6853 85.148 35.088C84.896 34.4813 84.77 33.8187 84.77 33.1C84.77 32.3813 84.896 31.7233 85.148 31.126C85.4 30.5193 85.7593 29.992 86.226 29.544C86.6927 29.096 87.234 28.7507 87.85 28.508C88.4753 28.256 89.1613 28.13 89.908 28.13C90.6173 28.13 91.2753 28.242 91.882 28.466C92.4887 28.69 93.0067 29.026 93.436 29.474L92.988 29.95C92.5587 29.53 92.0873 29.2313 91.574 29.054C91.07 28.8767 90.5193 28.788 89.922 28.788C89.2873 28.788 88.6993 28.8953 88.158 29.11C87.6167 29.3247 87.1453 29.628 86.744 30.02C86.3427 30.412 86.03 30.8693 85.806 31.392C85.5913 31.9147 85.484 32.484 85.484 33.1C85.484 33.716 85.5913 34.2853 85.806 34.808C86.03 35.3307 86.3427 35.788 86.744 36.18C87.1453 36.572 87.6167 36.8753 88.158 37.09C88.6993 37.3047 89.2873 37.412 89.922 37.412C90.5007 37.412 91.0467 37.3233 91.56 37.146C92.0827 36.9687 92.5587 36.6747 92.988 36.264L93.394 36.81C92.9553 37.23 92.428 37.5473 91.812 37.762C91.2053 37.9673 90.566 38.07 89.894 38.07ZM92.708 36.74V33.142H93.394V36.81L92.708 36.74ZM99.2801 38.056C98.5428 38.056 97.8895 37.8973 97.3201 37.58C96.7601 37.2627 96.3168 36.824 95.9901 36.264C95.6728 35.704 95.5141 35.0647 95.5141 34.346C95.5141 33.618 95.6635 32.9787 95.9621 32.428C96.2701 31.868 96.6901 31.4293 97.2221 31.112C97.7541 30.7947 98.3515 30.636 99.0141 30.636C99.6768 30.636 100.269 30.79 100.792 31.098C101.324 31.406 101.739 31.84 102.038 32.4C102.346 32.9507 102.5 33.59 102.5 34.318C102.5 34.346 102.495 34.3787 102.486 34.416C102.486 34.444 102.486 34.4767 102.486 34.514H96.0321V33.968H102.108L101.828 34.234C101.837 33.6647 101.716 33.156 101.464 32.708C101.221 32.2507 100.89 31.896 100.47 31.644C100.05 31.3827 99.5648 31.252 99.0141 31.252C98.4728 31.252 97.9875 31.3827 97.5581 31.644C97.1381 31.896 96.8068 32.2507 96.5641 32.708C96.3215 33.156 96.2001 33.6693 96.2001 34.248V34.374C96.2001 34.9713 96.3308 35.5033 96.5921 35.97C96.8628 36.4273 97.2315 36.7867 97.6981 37.048C98.1648 37.3 98.6968 37.426 99.2941 37.426C99.7608 37.426 100.195 37.342 100.596 37.174C101.007 37.006 101.352 36.7493 101.632 36.404L102.038 36.866C101.721 37.258 101.319 37.5567 100.834 37.762C100.358 37.958 99.8401 38.056 99.2801 38.056ZM106.794 38.056C106.15 38.056 105.655 37.8787 105.31 37.524C104.974 37.1693 104.806 36.684 104.806 36.068V29.096H105.506V35.998C105.506 36.4647 105.622 36.824 105.856 37.076C106.089 37.328 106.425 37.454 106.864 37.454C107.321 37.454 107.699 37.3187 107.998 37.048L108.292 37.538C108.105 37.7153 107.876 37.846 107.606 37.93C107.344 38.014 107.074 38.056 106.794 38.056ZM103.462 31.294V30.692H107.83V31.294H103.462ZM113.839 38V30.692H114.539V38H113.839ZM114.189 28.914C114.031 28.914 113.895 28.858 113.783 28.746C113.671 28.634 113.615 28.5033 113.615 28.354C113.615 28.1953 113.671 28.06 113.783 27.948C113.895 27.836 114.031 27.78 114.189 27.78C114.357 27.78 114.493 27.836 114.595 27.948C114.707 28.0507 114.763 28.1813 114.763 28.34C114.763 28.4987 114.707 28.634 114.595 28.746C114.493 28.858 114.357 28.914 114.189 28.914ZM119.618 38.056C118.974 38.056 118.479 37.8787 118.134 37.524C117.798 37.1693 117.63 36.684 117.63 36.068V29.096H118.33V35.998C118.33 36.4647 118.447 36.824 118.68 37.076C118.913 37.328 119.249 37.454 119.688 37.454C120.145 37.454 120.523 37.3187 120.822 37.048L121.116 37.538C120.929 37.7153 120.701 37.846 120.43 37.93C120.169 38.014 119.898 38.056 119.618 38.056ZM116.286 31.294V30.692H120.654V31.294H116.286ZM126.804 38V29.572C126.804 28.9653 126.976 28.48 127.322 28.116C127.676 27.7427 128.18 27.556 128.834 27.556C129.104 27.556 129.37 27.598 129.632 27.682C129.893 27.7567 130.108 27.8733 130.276 28.032L129.996 28.564C129.856 28.424 129.688 28.3213 129.492 28.256C129.296 28.1907 129.086 28.158 128.862 28.158C128.414 28.158 128.073 28.284 127.84 28.536C127.606 28.7787 127.49 29.1427 127.49 29.628V30.86L127.504 31.196V38H126.804ZM125.46 31.294V30.692H129.828V31.294H125.46ZM131.257 38V30.692H131.929V32.694L131.859 32.47C132.065 31.882 132.41 31.4293 132.895 31.112C133.381 30.7947 133.987 30.636 134.715 30.636V31.322C134.687 31.322 134.659 31.322 134.631 31.322C134.603 31.3127 134.575 31.308 134.547 31.308C133.735 31.308 133.101 31.5647 132.643 32.078C132.186 32.582 131.957 33.2867 131.957 34.192V38H131.257ZM139.432 38.056C138.732 38.056 138.106 37.8973 137.556 37.58C137.014 37.2627 136.58 36.824 136.254 36.264C135.936 35.704 135.778 35.0647 135.778 34.346C135.778 33.618 135.936 32.9787 136.254 32.428C136.58 31.868 137.014 31.4293 137.556 31.112C138.106 30.7947 138.732 30.636 139.432 30.636C140.132 30.636 140.757 30.7947 141.308 31.112C141.858 31.4293 142.292 31.868 142.61 32.428C142.927 32.9787 143.086 33.618 143.086 34.346C143.086 35.0647 142.927 35.704 142.61 36.264C142.292 36.824 141.858 37.2627 141.308 37.58C140.757 37.8973 140.132 38.056 139.432 38.056ZM139.432 37.426C139.992 37.426 140.496 37.3 140.944 37.048C141.392 36.7867 141.742 36.4227 141.994 35.956C142.246 35.4893 142.372 34.9527 142.372 34.346C142.372 33.73 142.246 33.1933 141.994 32.736C141.742 32.2693 141.392 31.91 140.944 31.658C140.496 31.3967 139.992 31.266 139.432 31.266C138.872 31.266 138.368 31.3967 137.92 31.658C137.481 31.91 137.131 32.2693 136.87 32.736C136.618 33.1933 136.492 33.73 136.492 34.346C136.492 34.9527 136.618 35.4893 136.87 35.956C137.131 36.4227 137.481 36.7867 137.92 37.048C138.368 37.3 138.872 37.426 139.432 37.426ZM154.357 30.636C154.945 30.636 155.454 30.7527 155.883 30.986C156.322 31.21 156.663 31.5553 156.905 32.022C157.148 32.4793 157.269 33.0487 157.269 33.73V38H156.569V33.786C156.569 32.9647 156.369 32.3393 155.967 31.91C155.566 31.4807 155.006 31.266 154.287 31.266C153.737 31.266 153.261 31.3827 152.859 31.616C152.458 31.8493 152.15 32.176 151.935 32.596C151.721 33.016 151.613 33.52 151.613 34.108V38H150.913V33.786C150.913 32.9647 150.713 32.3393 150.311 31.91C149.91 31.4807 149.35 31.266 148.631 31.266C148.081 31.266 147.605 31.3827 147.203 31.616C146.802 31.8493 146.494 32.176 146.279 32.596C146.065 33.016 145.957 33.52 145.957 34.108V38H145.257V30.692H145.929V32.708L145.831 32.484C146.046 31.9147 146.405 31.4667 146.909 31.14C147.413 30.804 148.02 30.636 148.729 30.636C149.457 30.636 150.069 30.8227 150.563 31.196C151.067 31.56 151.385 32.106 151.515 32.834L151.277 32.736C151.473 32.1107 151.842 31.6067 152.383 31.224C152.925 30.832 153.583 30.636 154.357 30.636Z" fill="#444444"/>
<path d="M94.104 61.144C92.824 61.144 91.64 60.936 90.552 60.52C89.48 60.088 88.544 59.488 87.744 58.72C86.96 57.952 86.344 57.048 85.896 56.008C85.464 54.968 85.248 53.832 85.248 52.6C85.248 51.368 85.464 50.232 85.896 49.192C86.344 48.152 86.968 47.248 87.768 46.48C88.568 45.712 89.504 45.12 90.576 44.704C91.664 44.272 92.848 44.056 94.128 44.056C95.408 44.056 96.576 44.256 97.632 44.656C98.704 45.056 99.616 45.664 100.368 46.48L99.264 47.608C98.56 46.904 97.784 46.4 96.936 46.096C96.088 45.792 95.176 45.64 94.2 45.64C93.16 45.64 92.2 45.816 91.32 46.168C90.456 46.504 89.696 46.992 89.04 47.632C88.4 48.256 87.896 48.992 87.528 49.84C87.176 50.672 87 51.592 87 52.6C87 53.592 87.176 54.512 87.528 55.36C87.896 56.208 88.4 56.952 89.04 57.592C89.696 58.216 90.456 58.704 91.32 59.056C92.2 59.392 93.152 59.56 94.176 59.56C95.136 59.56 96.04 59.416 96.888 59.128C97.752 58.84 98.544 58.352 99.264 57.664L100.272 59.008C99.472 59.712 98.536 60.248 97.464 60.616C96.392 60.968 95.272 61.144 94.104 61.144ZM98.568 58.792V52.6H100.272V59.008L98.568 58.792ZM110.075 61.12C108.859 61.12 107.763 60.848 106.787 60.304C105.827 59.744 105.067 58.984 104.507 58.024C103.947 57.048 103.667 55.936 103.667 54.688C103.667 53.424 103.947 52.312 104.507 51.352C105.067 50.392 105.827 49.64 106.787 49.096C107.747 48.552 108.843 48.28 110.075 48.28C111.323 48.28 112.427 48.552 113.387 49.096C114.363 49.64 115.123 50.392 115.667 51.352C116.227 52.312 116.507 53.424 116.507 54.688C116.507 55.936 116.227 57.048 115.667 58.024C115.123 58.984 114.363 59.744 113.387 60.304C112.411 60.848 111.307 61.12 110.075 61.12ZM110.075 59.608C110.987 59.608 111.795 59.408 112.499 59.008C113.203 58.592 113.755 58.016 114.155 57.28C114.571 56.528 114.779 55.664 114.779 54.688C114.779 53.696 114.571 52.832 114.155 52.096C113.755 51.36 113.203 50.792 112.499 50.392C111.795 49.976 110.995 49.768 110.099 49.768C109.203 49.768 108.403 49.976 107.699 50.392C106.995 50.792 106.435 51.36 106.019 52.096C105.603 52.832 105.395 53.696 105.395 54.688C105.395 55.664 105.603 56.528 106.019 57.28C106.435 58.016 106.995 58.592 107.699 59.008C108.403 59.408 109.195 59.608 110.075 59.608ZM125.121 61.12C123.905 61.12 122.809 60.848 121.833 60.304C120.873 59.744 120.113 58.984 119.553 58.024C118.993 57.048 118.713 55.936 118.713 54.688C118.713 53.424 118.993 52.312 119.553 51.352C120.113 50.392 120.873 49.64 121.833 49.096C122.793 48.552 123.889 48.28 125.121 48.28C126.369 48.28 127.473 48.552 128.433 49.096C129.409 49.64 130.169 50.392 130.713 51.352C131.273 52.312 131.553 53.424 131.553 54.688C131.553 55.936 131.273 57.048 130.713 58.024C130.169 58.984 129.409 59.744 128.433 60.304C127.457 60.848 126.353 61.12 125.121 61.12ZM125.121 59.608C126.033 59.608 126.841 59.408 127.545 59.008C128.249 58.592 128.801 58.016 129.201 57.28C129.617 56.528 129.825 55.664 129.825 54.688C129.825 53.696 129.617 52.832 129.201 52.096C128.801 51.36 128.249 50.792 127.545 50.392C126.841 49.976 126.041 49.768 125.145 49.768C124.249 49.768 123.449 49.976 122.745 50.392C122.041 50.792 121.481 51.36 121.065 52.096C120.649 52.832 120.441 53.696 120.441 54.688C120.441 55.664 120.649 56.528 121.065 57.28C121.481 58.016 122.041 58.592 122.745 59.008C123.449 59.408 124.241 59.608 125.121 59.608ZM140.408 65.776C139.256 65.776 138.152 65.608 137.096 65.272C136.04 64.936 135.184 64.456 134.528 63.832L135.392 62.536C135.984 63.064 136.712 63.48 137.576 63.784C138.456 64.104 139.384 64.264 140.36 64.264C141.96 64.264 143.136 63.888 143.888 63.136C144.64 62.4 145.016 61.248 145.016 59.68V56.536L145.256 54.376L145.088 52.216V48.4H146.72V59.464C146.72 61.64 146.184 63.232 145.112 64.24C144.056 65.264 142.488 65.776 140.408 65.776ZM140.096 60.52C138.896 60.52 137.816 60.264 136.856 59.752C135.896 59.224 135.136 58.496 134.576 57.568C134.032 56.64 133.76 55.576 133.76 54.376C133.76 53.176 134.032 52.12 134.576 51.208C135.136 50.28 135.896 49.56 136.856 49.048C137.816 48.536 138.896 48.28 140.096 48.28C141.216 48.28 142.224 48.512 143.12 48.976C144.016 49.44 144.728 50.128 145.256 51.04C145.784 51.952 146.048 53.064 146.048 54.376C146.048 55.688 145.784 56.8 145.256 57.712C144.728 58.624 144.016 59.32 143.12 59.8C142.224 60.28 141.216 60.52 140.096 60.52ZM140.264 59.008C141.192 59.008 142.016 58.816 142.736 58.432C143.456 58.032 144.024 57.488 144.44 56.8C144.856 56.096 145.064 55.288 145.064 54.376C145.064 53.464 144.856 52.664 144.44 51.976C144.024 51.288 143.456 50.752 142.736 50.368C142.016 49.968 141.192 49.768 140.264 49.768C139.352 49.768 138.528 49.968 137.792 50.368C137.072 50.752 136.504 51.288 136.088 51.976C135.688 52.664 135.488 53.464 135.488 54.376C135.488 55.288 135.688 56.096 136.088 56.8C136.504 57.488 137.072 58.032 137.792 58.432C138.528 58.816 139.352 59.008 140.264 59.008ZM151.462 61V43.192H153.166V61H151.462ZM163.259 61.12C161.947 61.12 160.795 60.848 159.803 60.304C158.811 59.744 158.035 58.984 157.475 58.024C156.915 57.048 156.635 55.936 156.635 54.688C156.635 53.44 156.899 52.336 157.427 51.376C157.971 50.416 158.707 49.664 159.635 49.12C160.579 48.56 161.635 48.28 162.803 48.28C163.987 48.28 165.035 48.552 165.947 49.096C166.875 49.624 167.603 50.376 168.131 51.352C168.659 52.312 168.923 53.424 168.923 54.688C168.923 54.768 168.915 54.856 168.899 54.952C168.899 55.032 168.899 55.12 168.899 55.216H157.931V53.944H167.987L167.315 54.448C167.315 53.536 167.115 52.728 166.715 52.024C166.331 51.304 165.803 50.744 165.131 50.344C164.459 49.944 163.683 49.744 162.803 49.744C161.939 49.744 161.163 49.944 160.475 50.344C159.787 50.744 159.251 51.304 158.867 52.024C158.483 52.744 158.291 53.568 158.291 54.496V54.76C158.291 55.72 158.499 56.568 158.915 57.304C159.347 58.024 159.939 58.592 160.691 59.008C161.459 59.408 162.331 59.608 163.307 59.608C164.075 59.608 164.787 59.472 165.443 59.2C166.115 58.928 166.691 58.512 167.171 57.952L168.131 59.056C167.571 59.728 166.867 60.24 166.019 60.592C165.187 60.944 164.267 61.12 163.259 61.12ZM179.033 61V44.2H185.321C186.745 44.2 187.969 44.432 188.993 44.896C190.017 45.344 190.801 46 191.345 46.864C191.905 47.712 192.185 48.744 192.185 49.96C192.185 51.144 191.905 52.168 191.345 53.032C190.801 53.88 190.017 54.536 188.993 55C187.969 55.464 186.745 55.696 185.321 55.696H180.017L180.809 54.856V61H179.033ZM180.809 55L180.017 54.136H185.273C186.953 54.136 188.225 53.776 189.089 53.056C189.969 52.32 190.409 51.288 190.409 49.96C190.409 48.616 189.969 47.576 189.089 46.84C188.225 46.104 186.953 45.736 185.273 45.736H180.017L180.809 44.896V55ZM195.899 61V43.192H197.603V61H195.899ZM210.241 61V58.216L210.169 57.76V53.104C210.169 52.032 209.865 51.208 209.257 50.632C208.665 50.056 207.777 49.768 206.593 49.768C205.777 49.768 205.001 49.904 204.265 50.176C203.529 50.448 202.905 50.808 202.393 51.256L201.625 49.984C202.265 49.44 203.033 49.024 203.929 48.736C204.825 48.432 205.769 48.28 206.761 48.28C208.393 48.28 209.649 48.688 210.529 49.504C211.425 50.304 211.873 51.528 211.873 53.176V61H210.241ZM205.897 61.12C204.953 61.12 204.129 60.968 203.425 60.664C202.737 60.344 202.209 59.912 201.841 59.368C201.473 58.808 201.289 58.168 201.289 57.448C201.289 56.792 201.441 56.2 201.745 55.672C202.065 55.128 202.577 54.696 203.281 54.376C204.001 54.04 204.961 53.872 206.161 53.872H210.505V55.144H206.209C204.993 55.144 204.145 55.36 203.665 55.792C203.201 56.224 202.969 56.76 202.969 57.4C202.969 58.12 203.249 58.696 203.809 59.128C204.369 59.56 205.153 59.776 206.161 59.776C207.121 59.776 207.945 59.56 208.633 59.128C209.337 58.68 209.849 58.04 210.169 57.208L210.553 58.384C210.233 59.216 209.673 59.88 208.873 60.376C208.089 60.872 207.097 61.12 205.897 61.12ZM216.363 65.776C215.771 65.776 215.203 65.68 214.659 65.488C214.131 65.296 213.675 65.008 213.291 64.624L214.083 63.352C214.403 63.656 214.747 63.888 215.115 64.048C215.499 64.224 215.923 64.312 216.387 64.312C216.947 64.312 217.427 64.152 217.827 63.832C218.243 63.528 218.635 62.984 219.003 62.2L219.819 60.352L220.011 60.088L225.195 48.4H226.875L220.563 62.512C220.211 63.328 219.819 63.976 219.387 64.456C218.971 64.936 218.515 65.272 218.019 65.464C217.523 65.672 216.971 65.776 216.363 65.776ZM219.723 61.36L213.915 48.4H215.691L220.827 59.968L219.723 61.36Z" fill="#1D3557"/>
</svg>
