<svg width="24" height="25" viewBox="0 0 24 25" fill="none" xmlns="http://www.w3.org/2000/svg">
<path fill-rule="evenodd" clip-rule="evenodd" d="M3.40332 3.90305C2.39999 4.90637 1.86323 6.55361 1.86323 9.21227V15.7876C1.86323 18.4463 2.39999 20.0935 3.40332 21.0968C4.40664 22.1002 6.05388 22.6369 8.71254 22.6369H15.2879C17.9465 22.6369 19.5938 22.1002 20.5971 21.0968C21.6004 20.0935 22.1372 18.4463 22.1372 15.7876V11.1301H18.5756C16.8862 11.1301 15.4984 10.8591 14.5697 9.93044C13.641 9.00176 13.3701 7.61397 13.3701 5.9246V2.36296H8.71254C6.05388 2.36296 4.40664 2.89973 3.40332 3.90305ZM15.0139 3.52533L20.9748 9.48625H18.5756C16.9773 9.48625 16.1733 9.20926 15.7321 8.76808C15.2909 8.32689 15.0139 7.52291 15.0139 5.9246V3.52533ZM2.24095 2.74068C3.70338 1.27825 5.89175 0.719125 8.71254 0.719125H14.192C14.41 0.719125 14.619 0.805719 14.7732 0.959859L23.5403 9.72698C23.6944 9.88112 23.781 10.0902 23.781 10.3082V15.7876C23.781 18.6084 23.2219 20.7968 21.7595 22.2592C20.297 23.7216 18.1087 24.2808 15.2879 24.2808H8.71254C5.89175 24.2808 3.70338 23.7216 2.24095 22.2592C0.778516 20.7968 0.219392 18.6084 0.219392 15.7876V9.21227C0.219392 6.39148 0.778516 4.20311 2.24095 2.74068ZM5.93958 13.0147L8.13136 10.8229C8.45234 10.5019 8.97275 10.5019 9.29373 10.8229L11.4855 13.0147C11.8065 13.3356 11.8065 13.856 11.4855 14.177C11.1645 14.498 10.6441 14.498 10.3231 14.177L9.53446 13.3883V17.9794C9.53446 18.4333 9.16647 18.8013 8.71254 18.8013C8.25861 18.8013 7.89062 18.4333 7.89062 17.9794V13.3883L7.10194 14.177C6.78097 14.498 6.26056 14.498 5.93958 14.177C5.6186 13.856 5.6186 13.3356 5.93958 13.0147Z" fill="#34A853"/>
<path fill-rule="evenodd" clip-rule="evenodd" d="M2.08575 2.58575C3.60944 1.06207 5.87001 0.5 8.71233 0.5H14.1918C14.4679 0.5 14.7327 0.609687 14.9279 0.80493L23.6951 9.57205C23.8903 9.76729 24 10.0321 24 10.3082V15.7877C24 18.63 23.4379 20.8906 21.9142 22.4142C20.3906 23.9379 18.13 24.5 15.2877 24.5H8.71233C5.87001 24.5 3.60944 23.9379 2.08575 22.4142C0.562068 20.8906 0 18.63 0 15.7877V9.21233C0 6.37001 0.562068 4.10944 2.08575 2.58575ZM8.71233 0.938356C5.91307 0.938356 3.7969 1.49454 2.39572 2.89572C0.994537 4.2969 0.438356 6.41307 0.438356 9.21233V15.7877C0.438356 18.5869 0.994537 20.7031 2.39572 22.1043C3.7969 23.5055 5.91307 24.0616 8.71233 24.0616H15.2877C18.0869 24.0616 20.2031 23.5055 21.6043 22.1043C23.0055 20.7031 23.5616 18.5869 23.5616 15.7877V10.3082C23.5616 10.1484 23.4981 9.99505 23.3851 9.88202L14.618 1.11489C14.5049 1.00186 14.3516 0.938356 14.1918 0.938356H8.71233ZM8.71233 2.58219C6.07539 2.58219 4.50024 3.11593 3.55808 4.05808C2.61593 5.00024 2.08219 6.57539 2.08219 9.21233V15.7877C2.08219 18.4246 2.61593 19.9998 3.55808 20.9419C4.50024 21.8841 6.07539 22.4178 8.71233 22.4178H15.2877C17.9246 22.4178 19.4998 21.8841 20.4419 20.9419C21.3841 19.9998 21.9178 18.4246 21.9178 15.7877V11.3493H18.5753C16.8739 11.3493 15.4082 11.0792 14.4145 10.0855C13.4208 9.09179 13.1507 7.62614 13.1507 5.92466V2.58219H8.71233ZM3.24812 3.74812C4.31261 2.68363 6.03194 2.14384 8.71233 2.14384H13.3699C13.4909 2.14384 13.589 2.24196 13.589 2.36301V5.92466C13.589 7.60191 13.8608 8.91185 14.7245 9.77552C15.5882 10.6392 16.8981 10.911 18.5753 10.911H22.137C22.258 10.911 22.3562 11.0091 22.3562 11.1301V15.7877C22.3562 18.4681 21.8164 20.1874 20.7519 21.2519C19.6874 22.3164 17.9681 22.8562 15.2877 22.8562H8.71233C6.03194 22.8562 4.31261 22.3164 3.24812 21.2519C2.18363 20.1874 1.64384 18.4681 1.64384 15.7877V9.21233C1.64384 6.53194 2.18363 4.81261 3.24812 3.74812ZM14.9298 3.32289C15.0117 3.28896 15.106 3.30771 15.1687 3.3704L21.1296 9.33132C21.1923 9.394 21.211 9.48827 21.1771 9.57018C21.1432 9.65208 21.0633 9.70548 20.9746 9.70548H18.5753C16.9649 9.70548 16.0831 9.42928 15.5769 8.92311C15.0707 8.41695 14.7945 7.53514 14.7945 5.92466V3.52538C14.7945 3.43673 14.8479 3.35681 14.9298 3.32289ZM15.2329 4.05452V5.92466C15.2329 7.51078 15.5107 8.23695 15.8868 8.61315C16.263 8.98935 16.9892 9.26712 18.5753 9.26712H20.4455L15.2329 4.05452ZM5.78438 12.8597L7.97616 10.6679C8.38274 10.2614 9.04192 10.2614 9.44849 10.6679L11.6403 12.8597C12.0468 13.2663 12.0468 13.9255 11.6403 14.3321C11.2337 14.7386 10.5745 14.7386 10.1679 14.3321L9.75342 13.9175V17.9795C9.75342 18.5544 9.28731 19.0205 8.71233 19.0205C8.13735 19.0205 7.67123 18.5544 7.67123 17.9795V13.9175L7.25671 14.3321C6.85014 14.7386 6.19095 14.7386 5.78438 14.3321C5.37781 13.9255 5.37781 13.2663 5.78438 12.8597ZM9.13853 10.9779C8.90315 10.7425 8.52151 10.7425 8.28613 10.9779L6.09435 13.1697C5.85896 13.4051 5.85896 13.7867 6.09435 14.0221C6.32973 14.2575 6.71136 14.2575 6.94675 14.0221L7.73543 13.2334C7.79811 13.1707 7.89238 13.152 7.97429 13.1859C8.05619 13.2198 8.10959 13.2997 8.10959 13.3884V17.9795C8.10959 18.3123 8.37944 18.5822 8.71233 18.5822C9.04521 18.5822 9.31507 18.3123 9.31507 17.9795V13.3884C9.31507 13.2997 9.36847 13.2198 9.45037 13.1859C9.53227 13.152 9.62654 13.1707 9.68923 13.2334L10.4779 14.0221C10.7133 14.2575 11.0949 14.2575 11.3303 14.0221C11.5657 13.7867 11.5657 13.4051 11.3303 13.1697L9.13853 10.9779Z" fill="#34A853"/>
</svg>
