<svg width="24" height="25" viewBox="0 0 24 25" fill="none" xmlns="http://www.w3.org/2000/svg">
<path fill-rule="evenodd" clip-rule="evenodd" d="M3.43378 3.93354C2.43401 4.93331 1.89914 6.57473 1.89914 9.22398V15.7761C1.89914 18.4253 2.43401 20.0667 3.43378 21.0665C4.43355 22.0663 6.07497 22.6011 8.72422 22.6011H15.2763C17.9255 22.6011 19.567 22.0663 20.5667 21.0665C21.5665 20.0667 22.1014 18.4253 22.1014 15.7761V9.22398C22.1014 6.57473 21.5665 4.93331 20.5667 3.93354C19.567 2.93377 17.9255 2.3989 15.2763 2.3989H8.72422C6.07497 2.3989 4.43355 2.93377 3.43378 3.93354ZM2.27553 2.77529C3.73278 1.31803 5.91341 0.760886 8.72422 0.760886H15.2763C18.0871 0.760886 20.2677 1.31803 21.725 2.77529C23.1822 4.23254 23.7394 6.41317 23.7394 9.22398V15.7761C23.7394 18.5869 23.1822 20.7675 21.725 22.2247C20.2677 23.682 18.0871 24.2391 15.2763 24.2391H8.72422C5.91341 24.2391 3.73278 23.682 2.27553 22.2247C0.81827 20.7675 0.261124 18.5869 0.261124 15.7761V9.22398C0.261124 6.41317 0.81827 4.23254 2.27553 2.77529Z" fill="#34A853"/>
<path fill-rule="evenodd" clip-rule="evenodd" d="M15.9759 8.35002C16.2957 8.66986 16.2957 9.18843 15.9759 9.50828L8.83412 16.65C8.51428 16.9699 7.99571 16.9699 7.67587 16.65C7.35602 16.3302 7.35602 15.8116 7.67587 15.4918L14.8176 8.35002C15.1374 8.03018 15.656 8.03018 15.9759 8.35002Z" fill="#34A853"/>
<path fill-rule="evenodd" clip-rule="evenodd" d="M8.70239 8.8527C8.4129 8.8527 8.17821 9.08739 8.17821 9.37688C8.17821 9.66634 8.41288 9.90102 8.70239 9.90102C8.99188 9.90102 9.22653 9.66637 9.22653 9.37688C9.22653 9.08736 8.99185 8.8527 8.70239 8.8527ZM6.54019 9.37688C6.54019 8.18274 7.50825 7.21468 8.70239 7.21468C9.89656 7.21468 10.8646 8.18276 10.8646 9.37688C10.8646 10.571 9.89653 11.539 8.70239 11.539C7.50828 11.539 6.54019 10.571 6.54019 9.37688Z" fill="#34A853"/>
<path fill-rule="evenodd" clip-rule="evenodd" d="M15.8442 15.099C15.5547 15.099 15.32 15.3337 15.32 15.6232C15.32 15.9127 15.5547 16.1473 15.8442 16.1473C16.1336 16.1473 16.3683 15.9126 16.3683 15.6232C16.3683 15.3337 16.1337 15.099 15.8442 15.099ZM13.682 15.6232C13.682 14.429 14.65 13.461 15.8442 13.461C17.0383 13.461 18.0064 14.429 18.0064 15.6232C18.0064 16.8173 17.0383 17.7854 15.8442 17.7854C14.65 17.7854 13.682 16.8173 13.682 15.6232Z" fill="#34A853"/>
<path fill-rule="evenodd" clip-rule="evenodd" d="M2.09081 2.59081C3.62097 1.06065 5.88753 0.5 8.72396 0.5H15.276C18.1125 0.5 20.379 1.06065 21.9092 2.59081C23.4394 4.12097 24 6.38753 24 9.22396V15.776C24 18.6125 23.4394 20.879 21.9092 22.4092C20.379 23.9394 18.1125 24.5 15.276 24.5H8.72396C5.88753 24.5 3.62097 23.9394 2.09081 22.4092C0.56065 20.879 0 18.6125 0 15.776V9.22396C0 6.38753 0.56065 4.12097 2.09081 2.59081ZM8.72396 1.02174C5.93878 1.02174 3.84409 1.57538 2.45973 2.95973C1.07538 4.34409 0.521739 6.43878 0.521739 9.22396V15.776C0.521739 18.5612 1.07538 20.6559 2.45973 22.0403C3.84409 23.4246 5.93878 23.9783 8.72396 23.9783H15.276C18.0612 23.9783 20.1559 23.4246 21.5403 22.0403C22.9246 20.6559 23.4783 18.5612 23.4783 15.776V9.22396C23.4783 6.43878 22.9246 4.34409 21.5403 2.95973C20.1559 1.57538 18.0612 1.02174 15.276 1.02174H8.72396ZM8.72396 2.65976C6.10057 2.65976 4.54496 3.19102 3.61799 4.11799C2.69102 5.04496 2.15976 6.60057 2.15976 9.22396V15.776C2.15976 18.3994 2.69102 19.955 3.61799 20.882C4.54496 21.809 6.10057 22.3402 8.72396 22.3402H15.276C17.8994 22.3402 19.455 21.809 20.382 20.882C21.309 19.955 21.8402 18.3994 21.8402 15.776V9.22396C21.8402 6.60057 21.309 5.04496 20.382 4.11799C19.455 3.19102 17.8994 2.65976 15.276 2.65976H8.72396ZM3.24906 3.74906C4.32164 2.67649 6.04885 2.13802 8.72396 2.13802H15.276C17.9511 2.13802 19.6784 2.67649 20.7509 3.74906C21.8235 4.82164 22.362 6.54885 22.362 9.22396V15.776C22.362 18.4511 21.8235 20.1784 20.7509 21.2509C19.6784 22.3235 17.9511 22.862 15.276 22.862H8.72396C6.04885 22.862 4.32164 22.3235 3.24906 21.2509C2.17649 20.1784 1.63802 18.4511 1.63802 15.776V9.22396C1.63802 6.54885 2.17649 4.82164 3.24906 3.74906ZM6.27907 9.37686C6.27907 8.03865 7.36392 6.9538 8.70214 6.9538C10.0404 6.9538 11.1252 8.03868 11.1252 9.37686C11.1252 10.7151 10.0404 11.7999 8.70214 11.7999C7.36396 11.7999 6.27907 10.7151 6.27907 9.37686ZM8.70214 7.47553C7.65207 7.47553 6.80081 8.32679 6.80081 9.37686C6.80081 10.4269 7.65209 11.2782 8.70214 11.2782C9.7522 11.2782 10.6034 10.4269 10.6034 9.37686C10.6034 8.32681 9.75222 7.47553 8.70214 7.47553ZM14.6329 8.16554C15.0546 7.74382 15.7383 7.74382 16.1601 8.16554C16.5818 8.58726 16.5818 9.271 16.1601 9.69272L9.01833 16.8345C8.59661 17.2562 7.91287 17.2562 7.49115 16.8345C7.06943 16.4127 7.06943 15.729 7.49115 15.3073L14.6329 8.16554ZM15.7911 8.53447C15.5732 8.3165 15.2198 8.3165 15.0018 8.53447L7.86007 15.6762C7.64211 15.8942 7.64211 16.2476 7.86007 16.4655C8.07804 16.6835 8.43144 16.6835 8.6494 16.4655L15.7911 9.3238C16.0091 9.10583 16.0091 8.75243 15.7911 8.53447ZM8.70214 9.11355C8.55672 9.11355 8.43883 9.23145 8.43883 9.37686C8.43883 9.52224 8.55669 9.64014 8.70214 9.64014C8.84755 9.64014 8.96541 9.52227 8.96541 9.37686C8.96541 9.23142 8.84752 9.11355 8.70214 9.11355ZM7.91709 9.37686C7.91709 8.9433 8.26857 8.59181 8.70214 8.59181C9.13568 8.59181 9.48715 8.94328 9.48715 9.37686C9.48715 9.81042 9.1357 10.1619 8.70214 10.1619C8.26855 10.1619 7.91709 9.8104 7.91709 9.37686ZM13.4209 15.6231C13.4209 14.2849 14.5057 13.2001 15.8439 13.2001C17.1821 13.2001 18.267 14.2849 18.267 15.6231C18.267 16.9614 17.1821 18.0462 15.8439 18.0462C14.5057 18.0462 13.4209 16.9613 13.4209 15.6231ZM15.8439 13.7218C14.7938 13.7218 13.9426 14.5731 13.9426 15.6231C13.9426 16.6732 14.7938 17.5245 15.8439 17.5245C16.894 17.5245 17.7452 16.6732 17.7452 15.6231C17.7452 14.5731 16.894 13.7218 15.8439 13.7218ZM15.8439 15.3599C15.6985 15.3599 15.5806 15.4777 15.5806 15.6231C15.5806 15.7686 15.6985 15.8864 15.8439 15.8864C15.9893 15.8864 16.1072 15.7686 16.1072 15.6231C16.1072 15.4778 15.9893 15.3599 15.8439 15.3599ZM15.0589 15.6231C15.0589 15.1896 15.4103 14.8381 15.8439 14.8381C16.2775 14.8381 16.629 15.1896 16.629 15.6231C16.629 16.0567 16.2775 16.4082 15.8439 16.4082C15.4104 16.4082 15.0589 16.0567 15.0589 15.6231Z" fill="#34A853"/>
</svg>
