<svg width="32" height="32" viewBox="0 0 32 32" fill="none" xmlns="http://www.w3.org/2000/svg">
<g clip-path="url(#clip0_2513_20218)">
<path d="M16.3831 1.63016e-06C16.568 0.0434693 16.7555 0.0784139 16.9379 0.131257C17.8311 0.387802 18.4789 0.934131 18.8445 1.79326C18.9119 1.95008 18.9903 2.0123 19.165 2.00889C19.7028 1.99781 20.2398 2.00207 20.7776 2.00633C20.9225 2.00719 21.0716 2.01315 21.2105 2.0481C21.5336 2.12907 21.664 2.30294 21.6682 2.63534C21.6725 2.96944 21.6691 3.30355 21.6691 3.66492C22.4719 3.66492 23.245 3.65384 24.0163 3.67004C24.3325 3.67686 24.6564 3.70498 24.9598 3.7868C26.1335 4.10216 26.9917 5.21698 26.9926 6.43492C26.9977 12.7676 26.9977 19.1011 26.9926 25.4337C26.9917 26.6866 26.0423 27.7392 24.7544 27.9421C24.5303 27.977 24.3019 27.9958 24.0751 27.9958C18.6903 27.9983 13.3045 27.9975 7.91965 27.9992C7.29406 27.9992 6.70938 27.8653 6.18265 27.521C5.40961 27.0165 5.00135 26.3116 5.00306 25.3741C5.00732 22.5674 5.00476 19.7608 5.00476 16.9541C5.00476 13.5006 5.00476 10.047 5.00476 6.59345C5.00476 4.8914 6.22527 3.67089 7.93329 3.66578C8.63474 3.66322 9.33619 3.66578 10.0385 3.66492C10.1271 3.66492 10.2158 3.65725 10.3308 3.65299C10.3308 3.32826 10.33 3.02058 10.3308 2.71375C10.3325 2.23475 10.5158 2.02849 11.0016 2.014C11.5931 1.99696 12.1863 2.00207 12.7778 2.00804C12.9363 2.00974 13.0156 1.96116 13.0838 1.81116C13.5278 0.840377 14.2796 0.253137 15.3288 0.0477309C15.3714 0.0392078 15.4114 0.0153432 15.4523 -0.000850677C15.7634 1.63016e-06 16.0728 1.63016e-06 16.3831 1.63016e-06ZM21.7015 5.02265C21.6887 5.05589 21.6759 5.07294 21.6759 5.08913C21.6733 5.53574 21.6708 5.9815 21.6699 6.42811C21.6682 7.07842 21.4151 7.33155 20.7563 7.33155C17.5763 7.3324 14.3963 7.3324 11.2164 7.33155C10.5686 7.33155 10.3308 7.0912 10.33 6.44004C10.33 5.96956 10.33 5.49824 10.33 5.0218C10.2413 5.01157 10.1876 5.00049 10.1348 5.00049C9.31488 5.0039 8.49326 4.97663 7.67589 5.02265C6.8841 5.06697 6.3301 5.72495 6.3301 6.53891C6.32925 12.7983 6.32925 19.0576 6.3301 25.3178C6.3301 25.9502 6.6267 26.3781 7.23184 26.563C7.47134 26.6363 7.733 26.6636 7.98443 26.6636C13.3241 26.6687 18.663 26.6679 24.0027 26.667C24.1391 26.667 24.2763 26.6627 24.4109 26.6457C25.2488 26.54 25.6698 26.0619 25.6698 25.2215C25.6698 19.0346 25.6698 12.8485 25.6698 6.66164C25.6698 6.58834 25.6715 6.51589 25.669 6.4426C25.6408 5.72069 25.0996 5.07208 24.3896 5.03373C23.5007 4.98685 22.6075 5.02265 21.7015 5.02265ZM11.6826 5.98576C14.5787 5.98576 17.4442 5.98576 20.3113 5.98576C20.3113 5.09595 20.3113 4.2266 20.3113 3.33593C19.7488 3.33593 19.2042 3.33593 18.6587 3.33593C18.0936 3.33593 17.8976 3.18678 17.7442 2.6413C17.4979 1.76598 16.6967 1.18556 15.8257 1.24948C15.0347 1.30829 14.3733 1.88019 14.1423 2.70608C14.0145 3.16121 13.7878 3.33338 13.3148 3.33508C13.1417 3.33593 12.9687 3.33508 12.7957 3.33508C12.4258 3.33508 12.0559 3.33508 11.6834 3.33508C11.6826 4.23938 11.6826 5.10277 11.6826 5.98576Z" fill="#222222"/>
<path d="M19.1632 10.9982C20.4102 10.9982 21.6579 10.9973 22.9049 10.999C23.2884 10.9999 23.5526 11.1797 23.6396 11.4874C23.7444 11.8573 23.5091 12.2417 23.1282 12.3116C23.0131 12.3329 22.8929 12.3337 22.7745 12.3337C20.371 12.3346 17.9674 12.3346 15.5648 12.3346C15.4736 12.3346 15.3824 12.3363 15.2921 12.3261C14.9153 12.286 14.6707 12.0184 14.675 11.6561C14.6792 11.2999 14.9392 11.0254 15.3125 11.0024C15.5486 10.9879 15.7855 10.9982 16.0225 10.9982C17.0691 10.9982 18.1166 10.9982 19.1632 10.9982Z" fill="#222222"/>
<path d="M19.1428 23.0038C17.9138 23.0038 16.6848 23.0064 15.4557 23.0021C14.9946 23.0004 14.7117 22.7754 14.6784 22.4038C14.6469 22.0483 14.8549 21.7585 15.2035 21.6818C15.2742 21.6665 15.3475 21.6622 15.4199 21.6622C17.9146 21.6614 20.4085 21.6605 22.9032 21.6622C23.3438 21.6622 23.6353 21.9111 23.6575 22.2861C23.6771 22.6288 23.4649 22.9109 23.1274 22.9757C23.0123 22.9978 22.8921 23.0012 22.7745 23.0012C21.5651 23.0046 20.354 23.0038 19.1428 23.0038Z" fill="#222222"/>
<path d="M19.1419 17.6649C17.895 17.6649 16.6472 17.6666 15.4003 17.6641C14.9563 17.6632 14.6699 17.3905 14.675 16.989C14.6793 16.649 14.9196 16.3839 15.2588 16.3455C15.3134 16.3396 15.3679 16.3379 15.4225 16.3379C17.9172 16.3379 20.411 16.3362 22.9057 16.3387C23.3344 16.3387 23.608 16.5518 23.6549 16.903C23.712 17.3325 23.4086 17.6624 22.9381 17.6641C21.9273 17.6683 20.9173 17.6658 19.9065 17.6658C19.6516 17.6649 19.3968 17.6649 19.1419 17.6649Z" fill="#222222"/>
<path d="M10.4246 16.8459C11.0545 16.245 11.715 15.6075 12.3858 14.981C12.5077 14.8676 12.6611 14.7628 12.8188 14.7185C13.1094 14.6367 13.4077 14.7961 13.5543 15.0611C13.7035 15.3322 13.6625 15.61 13.4103 15.8521C12.6619 16.5706 11.9076 17.2822 11.1551 17.9956C11.0366 18.1081 10.9215 18.2266 10.7954 18.3306C10.5082 18.5658 10.1706 18.5624 9.90898 18.3033C9.44362 17.8422 8.98508 17.3743 8.53677 16.897C8.26744 16.6098 8.28022 16.1853 8.53933 15.9364C8.80525 15.6808 9.18793 15.7072 9.49306 15.9927C9.79137 16.2714 10.0956 16.5441 10.4246 16.8459Z" fill="#222222"/>
<path d="M10.4076 11.5275C10.9889 10.9743 11.594 10.399 12.1991 9.82284C12.298 9.72909 12.3935 9.63022 12.4966 9.54158C12.8 9.28248 13.1818 9.30208 13.4503 9.58505C13.7103 9.85949 13.7094 10.2294 13.4188 10.509C12.5597 11.3357 11.6946 12.1556 10.8244 12.9696C10.5201 13.2542 10.1766 13.238 9.88086 12.9414C9.44448 12.5034 9.01151 12.061 8.58365 11.6135C8.27341 11.288 8.26403 10.8567 8.5487 10.5933C8.81974 10.3419 9.22117 10.393 9.54164 10.7075C9.81949 10.9811 10.1067 11.2436 10.4076 11.5275Z" fill="#222222"/>
<path d="M10.4092 22.1915C11.0757 21.5566 11.7533 20.9097 12.4334 20.2653C12.7104 20.0028 12.9926 19.9559 13.2755 20.1153C13.6778 20.3429 13.7699 20.8304 13.4392 21.1517C12.5715 21.9946 11.6911 22.8248 10.8064 23.6507C10.5149 23.9226 10.1689 23.8978 9.88334 23.6106C9.44695 23.1725 9.01398 22.7302 8.58612 22.2836C8.27503 21.9588 8.2631 21.5276 8.54521 21.2625C8.81454 21.0094 9.21683 21.0571 9.53815 21.3708C9.81686 21.6426 10.1049 21.9052 10.4092 22.1915Z" fill="#222222"/>
</g>
<defs>
<clipPath id="clip0_2513_20218">
<rect width="21.9938" height="28" fill="white" transform="translate(5.00305)"/>
</clipPath>
</defs>
</svg>
