<svg width="32" height="32" viewBox="0 0 32 32" fill="none" xmlns="http://www.w3.org/2000/svg">
<path d="M16 28C22.6274 28 28 22.6274 28 16C28 9.37258 22.6274 4 16 4C9.37258 4 4 9.37258 4 16C4 22.6274 9.37258 28 16 28Z" stroke="#222222" stroke-width="1.5" stroke-linecap="round" stroke-linejoin="round"/>
<path d="M16 22H16.012" stroke="#222222" stroke-width="1.5" stroke-linecap="round" stroke-linejoin="round"/>
<path d="M12.5081 12.4C12.7902 11.598 13.347 10.9217 14.08 10.491C14.813 10.0602 15.6747 9.90273 16.5127 10.0465C17.3506 10.1902 18.1106 10.6258 18.6581 11.2762C19.2057 11.9266 19.5053 12.7498 19.5041 13.6C19.5041 16 15.9041 17.2 15.9041 17.2" stroke="#222222" stroke-width="1.5" stroke-linecap="round" stroke-linejoin="round"/>
</svg>
