<svg width="32" height="32" viewBox="0 0 32 32" fill="none" xmlns="http://www.w3.org/2000/svg">
<path d="M31.9996 16.6569C31.8152 17.2062 31.5663 17.7166 31.1298 18.1164C30.5679 18.6312 29.9101 18.904 29.1469 18.9147C28.9908 18.9172 28.8346 18.9153 28.6233 18.9153C28.6233 19.0479 28.6233 19.1673 28.6233 19.2868C28.6233 22.3548 28.6283 25.4228 28.6208 28.4908C28.6164 30.1703 27.5529 31.5242 25.9488 31.9026C25.6678 31.9692 25.3712 31.9931 25.0815 31.995C23.4542 32.0038 21.8262 32 20.1989 31.9988C19.4909 31.9982 19.1147 31.6267 19.1141 30.9202C19.1122 28.5197 19.0871 26.1192 19.1253 23.72C19.1416 22.6735 18.4286 21.884 17.3112 21.9261C16.4357 21.9594 15.5584 21.9305 14.6824 21.9336C13.5912 21.9368 12.9566 22.5735 12.956 23.6691C12.9541 26.0589 12.956 28.4487 12.9554 30.8385C12.9554 31.6543 12.6092 31.9994 11.7952 31.9994C10.2093 31.9994 8.62339 32.0013 7.03747 31.9988C4.93544 31.9956 3.44986 30.5166 3.44672 28.416C3.44233 25.3895 3.44547 22.3636 3.44547 19.3371C3.44547 19.2132 3.44547 19.0894 3.44547 18.9486C3.08865 18.9184 2.74438 18.9197 2.41327 18.8549C1.29704 18.6375 0.531987 17.9762 0.170153 16.9045C-0.188545 15.8429 0.0309383 14.8686 0.754605 14.0119C0.84867 13.9006 0.954648 13.7988 1.05812 13.6957C5.13611 9.6151 9.21787 5.53637 13.2934 1.45135C13.8828 0.8605 14.4547 0.25771 15.2831 0C15.7842 0 16.2846 0 16.7856 0C17.577 0.254567 18.1414 0.815244 18.7102 1.38598C22.7217 5.4094 26.7376 9.42779 30.7617 13.438C31.301 13.9754 31.7851 14.5317 31.999 15.2791C31.9996 15.7385 31.9996 16.198 31.9996 16.6569ZM11.076 30.1144C11.076 29.956 11.076 29.8328 11.076 29.7096C11.0785 27.5913 11.0584 25.4724 11.0898 23.3542C11.1148 21.6854 12.4512 20.2202 14.113 20.1083C15.3891 20.0222 16.6759 20.0901 17.9583 20.0938C18.0612 20.0938 18.1653 20.1184 18.2662 20.1416C19.9054 20.5143 20.9797 21.8588 20.9878 23.5773C20.9972 25.6327 20.9903 27.6887 20.9903 29.7441C20.9903 29.8648 20.9903 29.9849 20.9903 30.1206C22.343 30.1206 23.6467 30.1206 24.9504 30.1206C26.1281 30.1206 26.7445 29.5053 26.7445 28.3292C26.7452 24.9168 26.7439 21.5043 26.7458 18.0919C26.7464 17.4256 27.1296 17.0434 27.7937 17.0384C28.242 17.0346 28.691 17.0447 29.1394 17.0346C29.6273 17.0239 30.013 16.7116 30.1415 16.2401C30.2857 15.7115 30.0148 15.3495 29.6662 15.0006C25.4358 10.7754 21.2098 6.54646 16.9819 2.31813C16.2997 1.63614 15.7685 1.6374 15.0837 2.3219C11.3142 6.09201 7.54416 9.86275 3.77407 13.6335C3.25734 14.1502 2.73873 14.6637 2.22514 15.1835C1.884 15.5292 1.78116 15.9403 1.97556 16.3891C2.16306 16.8222 2.51549 17.0365 2.99145 17.0365C3.36708 17.0371 3.74271 17.0365 4.11834 17.0371C4.99188 17.0378 5.32236 17.3703 5.32236 18.2509C5.32236 21.6634 5.32048 25.0758 5.32362 28.4883C5.32424 29.3639 5.91497 30.081 6.74273 30.103C8.17063 30.142 9.6004 30.1144 11.076 30.1144Z" fill="#444444"/>
</svg>
