<svg width="20" height="20" viewBox="0 0 20 20" fill="none" xmlns="http://www.w3.org/2000/svg">
<path d="M7.42158 19.9988C7.19286 19.8446 6.9483 19.7097 6.73952 19.5326C6.26331 19.1285 5.8041 18.7039 5.33786 18.2881C5.29974 18.2541 5.25869 18.2242 5.21001 18.1849C4.79596 18.5514 4.38543 18.9121 3.97842 19.2757C3.72566 19.5015 3.44181 19.6147 3.10048 19.539C2.6923 19.4487 2.40786 19.1185 2.37795 18.701C2.37267 18.6294 2.37033 18.5579 2.37033 18.4863C2.36974 12.8298 2.37033 7.17274 2.36798 1.51625C2.36798 1.22712 2.40903 0.9591 2.61371 0.738588C2.96559 0.357969 3.5069 0.330992 3.92857 0.688152C4.31095 1.01188 4.6816 1.34969 5.05753 1.68163C5.10562 1.72444 5.15547 1.7655 5.21705 1.81828C5.49269 1.57255 5.76422 1.33151 6.03517 1.08988C6.32665 0.829491 6.61636 0.567925 6.90842 0.308706C7.36997 -0.101236 7.84208 -0.103582 8.30305 0.305774C8.81445 0.759114 9.32292 1.21597 9.83256 1.67107C9.88475 1.71799 9.94047 1.76139 10.005 1.81535C10.4818 1.38957 10.9521 0.969657 11.4219 0.550331C11.514 0.468226 11.606 0.384947 11.6987 0.303428C12.1608 -0.102409 12.6306 -0.10065 13.0933 0.311638C13.6041 0.766152 14.1126 1.22243 14.6222 1.67753C14.6703 1.72034 14.7196 1.76256 14.7835 1.81769C14.9319 1.68867 15.0779 1.56258 15.2222 1.43473C15.4855 1.2019 15.7506 0.971416 16.011 0.735069C16.3295 0.44594 16.6901 0.343308 17.0878 0.526873C17.4766 0.706332 17.632 1.03651 17.6314 1.46053C17.6285 4.91073 17.6297 8.36093 17.6297 11.8105C17.6297 14.0432 17.6273 16.2759 17.632 18.5086C17.6326 18.8781 17.5347 19.1895 17.2191 19.4041C16.8749 19.6381 16.4497 19.6252 16.1142 19.3461C15.709 19.0089 15.3207 18.6517 14.9249 18.3033C14.8815 18.2652 14.8363 18.2289 14.7812 18.1831C14.4029 18.5203 14.0299 18.8535 13.6569 19.1866C13.4968 19.3297 13.3461 19.4851 13.1743 19.6135C12.9848 19.7554 12.7772 19.8722 12.5778 20C12.4605 20 12.3432 20 12.2265 20C12.0048 19.8587 11.7732 19.7302 11.5638 19.573C11.3668 19.4253 11.1932 19.247 11.009 19.0822C10.6759 18.7848 10.3416 18.4875 9.9997 18.1831C9.51235 18.6183 9.04493 19.0499 8.56109 19.4622C8.32826 19.6604 8.06318 19.8217 7.81334 20C7.68198 19.9988 7.55178 19.9988 7.42158 19.9988ZM3.31278 18.6171C3.76143 18.2201 4.16609 17.8529 4.58073 17.4975C4.98246 17.1527 5.45163 17.1562 5.8563 17.4981C6.05511 17.6659 6.24513 17.8441 6.43925 18.0177C6.82632 18.3632 7.2128 18.708 7.60691 19.0593C7.68139 18.9942 7.74473 18.9397 7.80748 18.8834C8.30774 18.4371 8.80682 17.9896 9.30708 17.5433C9.75808 17.1415 10.2378 17.1404 10.6876 17.5409C11.1932 17.9913 11.6969 18.4429 12.2019 18.8939C12.2635 18.949 12.328 19.0018 12.3931 19.0581C12.9678 18.5438 13.5285 18.0383 14.0938 17.538C14.5413 17.1415 15.0099 17.1398 15.4597 17.531C15.828 17.8512 16.1911 18.1773 16.5576 18.5004C16.5928 18.5315 16.6338 18.5555 16.6802 18.589C16.6802 12.8545 16.6802 7.1399 16.6802 1.39485C16.5992 1.46229 16.5447 1.50628 16.4925 1.55261C16.1418 1.86344 15.7993 2.18423 15.4369 2.48099C15.2961 2.59594 15.1184 2.68918 14.943 2.73317C14.6152 2.81469 14.3349 2.68273 14.0886 2.46046C13.5285 1.95493 12.9649 1.45408 12.3925 0.942093C12.3145 1.01012 12.2406 1.07288 12.1685 1.1368C11.6682 1.5831 11.1703 2.03234 10.6683 2.47688C10.2448 2.85222 9.75573 2.85105 9.33113 2.47982C9.19389 2.35959 9.05959 2.23702 8.92353 2.11562C8.4872 1.7262 8.05028 1.33679 7.60984 0.943852C7.5553 0.990183 7.51073 1.02654 7.46791 1.06525C6.94009 1.53619 6.41462 2.01299 5.88152 2.48099C5.45985 2.85164 4.98481 2.85046 4.55962 2.48861C4.36667 2.32381 4.17958 2.15198 3.98957 1.98366C3.77199 1.7913 3.55382 1.60011 3.31337 1.3884C3.31278 7.13931 3.31278 12.855 3.31278 18.6171Z" fill="#222222"/>
<path d="M10.0073 12.3419C11.4459 12.3419 12.8845 12.3425 14.3231 12.3413C14.5284 12.3413 14.7114 12.3788 14.8299 12.5677C14.9888 12.821 14.8639 13.1618 14.5765 13.2439C14.4903 13.2685 14.397 13.2773 14.3073 13.2773C11.4365 13.2791 8.56578 13.2791 5.69502 13.2773C5.60529 13.2773 5.51263 13.2679 5.42583 13.2451C5.22936 13.1929 5.09975 13.014 5.09858 12.8117C5.09741 12.6199 5.21939 12.4351 5.40354 12.38C5.5009 12.3507 5.60822 12.3437 5.71085 12.3437C7.14301 12.3413 8.57517 12.3419 10.0073 12.3419Z" fill="#222222"/>
<path d="M10.0191 9.53103C11.4577 9.53103 12.8963 9.53044 14.3349 9.53162C14.6698 9.53162 14.8633 9.67941 14.8938 9.95153C14.9178 10.1685 14.7935 10.3709 14.5841 10.4324C14.4985 10.4577 14.4053 10.467 14.3155 10.467C11.4383 10.4688 8.5611 10.4682 5.68388 10.4688C5.48038 10.4688 5.29505 10.436 5.17424 10.2477C5.01238 9.99551 5.12908 9.6536 5.41528 9.56681C5.50677 9.53924 5.60706 9.53279 5.70382 9.53279C7.14184 9.53044 8.58045 9.53103 10.0191 9.53103Z" fill="#222222"/>
<path d="M7.89834 7.65778C7.14414 7.65778 6.38936 7.66013 5.63516 7.65661C5.25806 7.65485 5.04048 7.40678 5.11614 7.07542C5.16481 6.86195 5.34779 6.72648 5.61287 6.7212C5.89907 6.71592 6.18527 6.72003 6.47146 6.72003C7.6878 6.72003 8.90355 6.71944 10.1199 6.72061C10.399 6.72061 10.5867 6.83028 10.6577 7.02616C10.7726 7.34403 10.5468 7.64899 10.1809 7.65602C9.79733 7.66306 9.41319 7.65778 9.02964 7.65778C8.65313 7.65778 8.27544 7.65778 7.89834 7.65778Z" fill="#222222"/>
</svg>
