<svg width="28" height="28" viewBox="0 0 28 28" fill="none" xmlns="http://www.w3.org/2000/svg">
<path d="M14.0234 23.7417C11.0134 23.7417 8.01505 23.2633 5.15671 22.3067C4.09505 21.9567 3.29005 21.1983 2.94005 20.2417C2.59005 19.285 2.70671 18.1883 3.27838 17.2317L4.76005 14.7583C5.08671 14.21 5.37838 13.1833 5.37838 12.5417V10.0917C5.37838 5.32 9.25172 1.44667 14.0234 1.44667C18.795 1.44667 22.6684 5.32 22.6684 10.0917V12.5417C22.6684 13.1717 22.96 14.21 23.2867 14.7583L24.7684 17.2317C25.3167 18.1417 25.41 19.2267 25.0484 20.2183C24.6867 21.21 23.8934 21.9683 22.89 22.3067C20.0317 23.275 17.0334 23.7417 14.0234 23.7417ZM14.0234 3.20833C10.22 3.20833 7.12838 6.3 7.12838 10.1033V12.5533C7.12838 13.4983 6.75505 14.8633 6.26505 15.6683L4.78338 18.1533C4.48005 18.655 4.41005 19.1917 4.58505 19.6583C4.76005 20.125 5.15671 20.475 5.71671 20.6617C11.0834 22.4467 16.9867 22.4467 22.3534 20.6617C22.855 20.4983 23.24 20.125 23.415 19.635C23.6017 19.145 23.5434 18.6083 23.275 18.1533L21.7934 15.68C21.3034 14.875 20.93 13.51 20.93 12.565V10.115C20.9184 6.3 17.8267 3.20833 14.0234 3.20833Z" fill="#222222"/>
<path d="M14 26.7167C12.7517 26.7167 11.5267 26.2033 10.64 25.3167C9.75332 24.43 9.23999 23.205 9.23999 21.9567H10.99C10.99 22.75 11.3167 23.52 11.8767 24.08C12.4367 24.64 13.2067 24.9667 14 24.9667C15.6567 24.9667 17.01 23.6133 17.01 21.9567H18.76C18.76 24.5817 16.625 26.7167 14 26.7167Z" fill="#222222"/>
</svg>
