<svg width="26" height="26" viewBox="0 0 26 26" fill="none" xmlns="http://www.w3.org/2000/svg">
<g clip-path="url(#clip0_1416_8574)">
<path d="M7.80345 10.3947C7.80345 10.2432 7.80345 10.1341 7.80345 10.025C7.80345 8.88728 7.80101 7.74959 7.80427 6.61189C7.80671 5.71689 8.33117 5.19975 9.22944 5.19894C11.2304 5.19812 13.2321 5.19894 15.2331 5.19894C15.3438 5.19894 15.4538 5.19894 15.6061 5.19894C15.6061 5.06945 15.6061 4.96114 15.6061 4.85283C15.6061 3.70455 15.6036 2.55708 15.6069 1.4088C15.6093 0.522752 16.1224 0.00398995 17.0035 0.00317557C19.533 -8.1961e-05 22.0625 -8.1961e-05 24.592 0.00317557C25.4772 0.00398995 25.9976 0.51868 25.9976 1.40066C26 7.40429 26 13.4087 25.9976 19.4124C25.9976 20.2838 25.4617 20.8041 24.5814 20.805C16.861 20.8058 9.13986 20.8058 1.41951 20.805C0.523689 20.805 0.00167018 20.2846 0.000855798 19.3847C-0.00158735 16.865 -0.00158735 14.3461 0.000855798 11.8264C0.00167018 10.9167 0.526133 10.398 1.44476 10.3971C3.42533 10.3947 5.40673 10.3963 7.3873 10.3963C7.50946 10.3947 7.63081 10.3947 7.80345 10.3947ZM23.3859 18.1786C23.3859 12.9698 23.3859 7.79519 23.3859 2.61246C21.652 2.61246 19.941 2.61246 18.2145 2.61246C18.2145 7.80904 18.2145 12.9844 18.2145 18.1786C19.9443 18.1786 21.6561 18.1786 23.3859 18.1786ZM10.4193 7.82044C10.4193 11.2824 10.4193 14.7288 10.4193 18.1753C12.1555 18.1753 13.8665 18.1753 15.5873 18.1753C15.5873 14.7142 15.5873 11.275 15.5873 7.82044C13.8568 7.82044 12.1441 7.82044 10.4193 7.82044ZM7.78554 13.0211C6.05335 13.0211 4.33581 13.0211 2.61258 13.0211C2.61258 14.7516 2.61258 16.461 2.61258 18.1802C4.34477 18.1802 6.05579 18.1802 7.78554 18.1802C7.78554 16.4537 7.78554 14.7435 7.78554 13.0211Z" fill="#444444"/>
<path d="M13.0004 23.4094C16.8305 23.4094 20.6597 23.4086 24.4898 23.4111C24.6812 23.4111 24.8807 23.4119 25.0631 23.4616C25.6926 23.6318 26.0648 24.2189 25.9891 24.8859C25.9198 25.491 25.3994 25.9642 24.7659 25.9959C24.6649 26.0008 24.5631 26 24.4613 26C16.8215 26 9.18262 26.0008 1.54288 25.9984C1.34092 25.9984 1.13162 25.9984 0.939425 25.9471C0.309092 25.7777 -0.0614526 25.1913 0.0134707 24.5227C0.0818789 23.9176 0.603085 23.4265 1.23668 23.4168C2.27257 23.4005 3.30928 23.4094 4.34518 23.4094C7.22972 23.4094 10.1151 23.4094 13.0004 23.4094Z" fill="#444444"/>
</g>
<defs>
<clipPath id="clip0_1416_8574">
<rect width="26.0008" height="26" fill="white"/>
</clipPath>
</defs>
</svg>
