<svg width="32" height="32" viewBox="0 0 32 32" fill="none" xmlns="http://www.w3.org/2000/svg">
<path d="M15.4584 26.5625C9.33752 26.5625 4.35419 21.5792 4.35419 15.4583C4.35419 9.3375 9.33752 4.35417 15.4584 4.35417C21.5792 4.35417 26.5625 9.3375 26.5625 15.4583C26.5625 21.5792 21.5792 26.5625 15.4584 26.5625ZM15.4584 5.97917C10.2259 5.97917 5.97919 10.2367 5.97919 15.4583C5.97919 20.68 10.2259 24.9375 15.4584 24.9375C20.6909 24.9375 24.9375 20.68 24.9375 15.4583C24.9375 10.2367 20.6909 5.97917 15.4584 5.97917Z" fill="#292D32"/>
<path d="M27.1164 28C26.8917 28 26.6671 27.9173 26.4898 27.7401L22.1255 23.3775C21.7827 23.035 22.2142 22.8996 22.557 22.557C22.8998 22.2145 23.0358 21.7828 23.3786 22.1254L27.7429 26.4879C28.0857 26.8305 28.0857 27.3975 27.7429 27.7401C27.5656 27.9173 27.341 28 27.1164 28Z" fill="#292D32"/>
</svg>
