<svg width="20" height="14" viewBox="0 0 20 14" fill="none" xmlns="http://www.w3.org/2000/svg">
<g clip-path="url(#clip0_1052_5115)">
<path d="M16.9108 4.27343C16.611 3.97976 16.3697 3.74604 16.1322 3.50928C15.7095 3.08888 15.2861 2.66848 14.868 2.24429C14.4696 1.84059 14.4498 1.30029 14.8133 0.926186C15.1844 0.54373 15.7406 0.554354 16.1519 0.963369C17.3319 2.13881 18.5081 3.31805 19.6859 4.49577C19.9818 4.79172 20.0888 5.13927 19.9218 5.53159C19.7564 5.92163 19.4385 6.09237 19.0181 6.09237C14.2207 6.09161 9.42253 6.09237 4.62514 6.09085C4.04918 6.09085 3.63865 5.70688 3.63941 5.18176C3.64016 4.65361 4.0469 4.27495 4.6259 4.27495C8.59084 4.27343 12.5558 4.27419 16.5207 4.27419C16.6209 4.27343 16.7211 4.27343 16.9108 4.27343Z" fill="#222222"/>
<path d="M3.12337 9.72644C3.22657 9.83799 3.28652 9.90704 3.35026 9.97078C3.94519 10.5665 4.54392 11.1591 5.13505 11.7586C5.53117 12.16 5.54635 12.7064 5.1821 13.0775C4.80875 13.4569 4.25556 13.4425 3.84351 13.0319C2.67034 11.8633 1.50173 10.6902 0.329317 9.52079C0.025781 9.21801 -0.0948747 8.86819 0.0796586 8.46449C0.252674 8.06306 0.584288 7.90674 1.01379 7.90674C5.80132 7.90977 10.5888 7.90826 15.3771 7.90901C15.9516 7.90901 16.3621 8.29451 16.3598 8.82038C16.3575 9.34626 15.9485 9.72492 15.3695 9.72492C11.4054 9.72644 7.44041 9.72568 3.47623 9.72568C3.37758 9.72644 3.27817 9.72644 3.12337 9.72644Z" fill="#222222"/>
</g>
<defs>
<clipPath id="clip0_1052_5115">
<rect width="20" height="12.7045" fill="white" transform="translate(0 0.647705)"/>
</clipPath>
</defs>
</svg>
